<?xml version="1.0" encoding="UTF-8" ?>
<!DOCTYPE svg PUBLIC "-//W3C//DTD SVG 1.1//EN" "http://www.w3.org/Graphics/SVG/1.1/DTD/svg11.dtd">
<svg width="1203pt" height="376pt" viewBox="0 0 1203 376" version="1.1" xmlns="http://www.w3.org/2000/svg">
<g id="#504943ff">
</g>
<g id="#37322eb2">
</g>
<g id="#fcac3a">
<path fill="#fcac3a" opacity="1.00" d=" M 825.79 42.13 C 840.83 40.89 855.97 41.38 871.05 41.66 C 881.25 42.59 891.77 42.92 901.41 46.76 C 905.08 48.13 907.60 51.46 908.89 55.06 C 913.06 66.92 912.60 79.63 913.25 91.99 C 912.48 104.80 913.25 118.16 908.32 130.29 C 906.12 136.17 899.63 138.16 894.09 139.40 C 874.66 143.38 854.70 142.51 834.99 142.47 C 828.29 142.58 821.65 141.73 814.99 141.35 C 807.53 140.62 799.33 138.64 794.51 132.42 C 789.93 126.33 789.95 118.32 789.39 111.06 C 789.41 102.05 788.18 93.04 789.11 84.04 C 789.43 74.70 789.80 65.19 792.64 56.22 C 793.83 52.37 796.13 48.56 800.02 46.99 C 808.15 43.55 817.08 42.79 825.79 42.13 M 837.15 66.08 C 833.10 66.50 828.98 66.43 825.03 67.53 C 822.98 67.96 820.83 68.84 819.78 70.78 C 817.39 75.08 817.39 80.16 816.78 84.92 C 816.46 92.94 816.43 101.06 818.11 108.94 C 818.72 111.76 820.03 114.97 823.05 115.90 C 828.81 117.85 834.97 117.43 840.94 118.18 C 852.99 118.48 865.20 118.57 877.09 116.36 C 881.49 115.77 883.62 111.41 884.21 107.46 C 885.71 97.13 885.75 86.56 884.17 76.24 C 883.47 73.08 882.36 69.22 878.92 68.09 C 873.48 66.19 867.64 66.49 861.99 65.80 C 853.72 65.67 845.40 65.36 837.15 66.08 Z" />
<path fill="#fcac3a" opacity="1.00" d=" M 393.34 141.33 C 393.18 108.42 393.19 75.50 393.33 42.58 C 426.85 42.70 460.37 42.67 493.88 42.60 C 494.57 50.18 494.01 57.81 494.21 65.41 C 469.72 65.57 445.23 65.31 420.75 65.54 C 420.77 70.55 420.77 75.56 420.75 80.57 C 444.03 80.74 467.32 80.68 490.60 80.60 C 490.78 88.17 490.55 95.75 490.73 103.32 C 467.40 103.53 444.07 103.22 420.75 103.48 C 420.77 108.45 420.77 113.42 420.76 118.39 C 445.24 118.60 469.73 118.35 494.21 118.51 C 493.86 126.13 494.85 133.85 493.65 141.39 C 460.22 141.19 426.78 141.30 393.34 141.33 Z" />
<path fill="#fcac3a" opacity="1.00" d=" M 518.52 141.30 C 518.48 108.41 518.49 75.53 518.51 42.64 C 547.34 42.67 576.18 42.61 605.01 42.67 C 611.55 43.10 618.71 43.55 623.95 47.98 C 630.09 53.42 631.22 62.22 631.40 69.96 C 631.57 77.90 628.73 86.93 621.11 90.64 C 628.42 93.85 633.72 100.87 634.42 108.87 C 635.08 117.03 635.07 126.17 630.13 133.13 C 624.97 139.82 615.85 140.86 608.01 141.28 C 578.18 141.31 548.35 141.27 518.52 141.30 M 546.45 65.47 C 546.44 70.42 546.39 75.37 546.48 80.32 C 563.68 80.30 580.88 80.30 598.07 80.32 C 600.53 80.31 603.32 80.08 605.14 78.21 C 607.18 76.45 606.84 73.43 606.72 71.01 C 606.59 67.64 603.03 65.41 599.91 65.49 C 582.09 65.41 564.27 65.46 546.45 65.47 M 546.42 101.34 C 546.45 107.05 546.42 112.75 546.44 118.45 C 563.61 118.47 580.79 118.47 597.97 118.46 C 601.85 118.65 606.38 116.14 606.72 111.93 C 606.87 109.17 607.12 105.97 605.23 103.71 C 603.17 101.41 599.84 101.30 596.99 101.29 C 580.13 101.35 563.27 101.26 546.42 101.34 Z" />
<path fill="#fcac3a" opacity="1.00" d=" M 656.26 42.64 C 681.49 42.69 706.72 42.57 731.95 42.70 C 741.34 43.65 752.41 43.21 759.50 50.49 C 765.88 58.42 766.45 69.28 766.59 79.04 C 766.61 88.54 766.13 98.68 761.03 106.99 C 757.64 112.48 751.07 114.39 745.10 115.47 C 737.15 117.07 729.00 116.60 720.95 116.68 C 708.75 116.61 696.54 116.83 684.34 116.57 C 683.01 124.72 684.18 133.09 683.70 141.33 C 674.56 141.26 665.43 141.27 656.30 141.32 C 656.16 108.43 656.24 75.53 656.26 42.64 M 683.74 67.39 C 684.08 75.74 683.13 84.18 684.26 92.46 C 699.19 92.15 714.14 92.53 729.07 92.27 C 733.97 92.09 738.44 88.01 738.57 83.00 C 738.83 78.67 739.24 73.50 735.90 70.15 C 733.61 67.78 730.22 67.16 727.06 67.27 C 712.62 67.35 698.18 67.12 683.74 67.39 Z" />
<path fill="#fcac3a" opacity="1.00" d=" M 757.59 169.94 C 769.01 168.86 780.51 169.29 791.97 169.21 C 803.78 169.09 815.65 169.68 827.26 171.96 C 831.86 172.97 836.94 174.06 840.29 177.65 C 843.89 182.32 844.89 188.38 845.88 194.06 C 847.42 205.97 847.64 218.02 847.28 230.02 C 846.42 239.81 846.40 250.04 842.05 259.09 C 840.41 262.67 836.77 264.67 833.18 265.81 C 821.82 269.40 809.80 269.56 798.02 270.30 C 785.00 270.30 771.96 270.75 758.98 269.70 C 751.24 269.46 743.20 269.11 736.04 265.85 C 730.45 263.28 726.29 257.97 725.15 251.92 C 723.42 242.72 723.39 233.31 723.28 223.98 C 723.22 211.94 723.27 199.78 725.82 187.96 C 727.03 183.01 728.76 177.24 733.81 174.96 C 741.23 171.47 749.56 170.90 757.59 169.94 M 769.59 193.87 C 765.38 194.43 761.00 194.40 757.02 196.05 C 754.41 197.07 753.21 199.84 752.55 202.36 C 750.92 208.76 751.26 215.42 751.19 221.96 C 751.31 228.11 751.13 234.57 753.66 240.31 C 755.76 244.41 760.91 244.52 764.89 245.18 C 778.24 246.05 791.69 246.05 805.04 245.20 C 809.44 244.57 815.36 244.36 817.23 239.46 C 819.75 232.26 819.53 224.50 819.54 216.98 C 819.36 211.22 819.19 205.28 817.20 199.82 C 815.90 196.23 811.90 195.18 808.52 194.70 C 795.63 192.98 782.55 193.32 769.59 193.87 Z" />
<path fill="#fcac3a" opacity="1.00" d=" M 393.71 170.51 C 403.02 170.37 412.32 170.51 421.63 170.43 C 421.60 195.12 421.62 219.81 421.61 244.51 C 435.21 244.58 448.80 244.57 462.40 244.51 C 462.39 219.82 462.42 195.14 462.38 170.45 C 471.68 170.48 480.98 170.40 490.28 170.50 C 490.23 195.18 490.25 219.87 490.27 244.55 C 503.74 244.54 517.20 244.56 530.67 244.55 C 530.71 219.86 530.72 195.18 530.67 170.50 C 539.97 170.39 549.28 170.50 558.58 170.43 C 558.56 203.22 558.57 236.01 558.58 268.80 C 503.62 268.72 448.66 268.96 393.70 268.68 C 393.78 235.96 393.75 203.23 393.71 170.51 Z" />
<path fill="#fcac3a" opacity="1.00" d=" M 585.41 170.46 C 622.70 170.47 659.99 170.40 697.28 170.50 C 697.21 178.61 697.33 186.73 697.21 194.84 C 683.26 195.01 669.30 194.53 655.36 195.09 C 655.45 219.64 655.31 244.18 655.43 268.73 C 646.11 268.87 636.78 268.78 627.46 268.77 C 627.50 244.13 627.54 219.49 627.44 194.85 C 613.43 194.82 599.43 194.89 585.42 194.81 C 585.46 186.70 585.48 178.58 585.41 170.46 Z" />
<path fill="#fcac3a" opacity="1.00" d=" M 871.39 170.45 C 896.71 170.50 922.02 170.36 947.34 170.52 C 954.81 170.74 962.52 171.35 969.48 174.30 C 974.56 176.43 977.62 181.48 979.23 186.53 C 982.33 196.38 982.06 206.87 981.50 217.07 C 980.49 225.56 978.57 235.84 970.20 240.17 C 961.41 244.16 951.46 244.48 941.96 244.48 C 927.74 244.49 913.52 244.48 899.30 244.49 C 899.27 252.60 899.33 260.71 899.28 268.81 C 893.85 268.79 888.42 268.75 883.01 268.86 C 879.13 268.80 875.25 268.76 871.38 268.79 C 871.44 236.01 871.43 203.23 871.39 170.45 M 899.42 220.26 C 913.28 220.19 927.14 220.25 941.00 220.24 C 945.35 220.21 950.59 219.20 952.64 214.84 C 954.56 210.24 954.65 204.78 952.70 200.17 C 950.84 196.14 946.11 194.95 942.05 194.90 C 927.85 194.73 913.64 194.95 899.44 194.80 C 899.19 203.28 899.23 211.78 899.42 220.26 Z" />
<path fill="#fcac3a" opacity="1.00" d=" M 1000.70 170.50 C 1010.00 170.39 1019.31 170.49 1028.61 170.45 C 1028.55 178.54 1028.63 186.62 1028.56 194.71 C 1044.70 194.94 1060.86 194.56 1077.00 194.90 C 1085.86 195.75 1096.04 195.56 1103.10 201.85 C 1110.37 209.59 1110.57 220.98 1111.19 230.96 C 1110.91 239.46 1110.65 248.28 1107.18 256.19 C 1105.34 260.38 1101.98 263.99 1097.62 265.54 C 1086.26 269.83 1073.92 268.59 1062.04 268.80 C 1041.59 268.72 1021.13 268.96 1000.68 268.67 C 1000.77 235.95 1000.73 203.22 1000.70 170.50 M 1028.58 219.41 C 1028.60 227.78 1028.58 236.15 1028.59 244.52 C 1043.06 244.59 1057.54 244.53 1072.02 244.55 C 1075.69 244.63 1079.95 243.38 1081.68 239.83 C 1083.94 235.00 1083.96 229.13 1081.77 224.28 C 1080.01 220.66 1075.73 219.28 1071.97 219.36 C 1057.50 219.38 1043.04 219.31 1028.58 219.41 Z" />
<path fill="#fcac3a" opacity="1.00" d=" M 1128.52 170.46 C 1137.84 170.45 1147.17 170.44 1156.50 170.47 C 1156.41 203.23 1156.43 236.00 1156.49 268.76 C 1147.15 268.80 1137.82 268.85 1128.48 268.74 C 1128.59 235.98 1128.52 203.22 1128.52 170.46 Z" />
</g>
<g id="#6a645fff">
<path fill="#6a645f" opacity="1.00" d=" M 126.84 43.67 C 140.64 43.38 154.48 42.56 168.26 43.47 C 167.43 43.52 165.77 43.62 164.94 43.67 C 162.31 43.81 159.68 43.84 157.05 43.85 C 153.72 43.87 150.39 43.95 147.07 44.01 C 143.76 44.08 140.46 44.16 137.15 44.27 C 137.10 49.14 137.18 54.06 136.23 58.87 C 133.07 60.82 130.01 62.93 126.93 65.01 C 126.76 57.90 126.79 50.79 126.84 43.67 Z" />
</g>
<g id="#fefefeff">
<path fill="#fefefe" opacity="1.00" d=" M 253.11 43.44 C 269.37 43.41 285.64 43.42 301.91 43.42 C 301.92 51.11 301.91 58.80 301.91 66.50 C 287.64 66.50 273.36 66.50 259.09 66.50 C 259.01 59.17 259.31 51.85 258.89 44.53 C 256.96 44.18 255.04 43.79 253.11 43.44 Z" />
<path fill="#fefefe" opacity="1.00" d=" M 319.98 43.38 C 329.46 43.48 338.95 43.38 348.43 43.43 C 348.42 51.12 348.43 58.81 348.42 66.50 C 338.91 66.50 329.40 66.50 319.89 66.50 C 319.93 58.79 319.78 51.08 319.98 43.38 Z" />
<path fill="#fefefe" opacity="1.00" d=" M 309.51 43.41 C 310.09 43.42 311.24 43.44 311.81 43.45 C 311.75 118.77 311.87 194.09 311.76 269.41 C 311.20 269.52 310.08 269.75 309.53 269.86 C 309.47 194.38 309.50 118.89 309.51 43.41 Z" />
<path fill="#fefefe" opacity="1.00" d=" M 259.01 80.70 C 273.31 80.69 287.61 80.69 301.91 80.70 C 301.91 88.39 301.92 96.08 301.91 103.78 C 293.37 103.78 284.83 103.76 276.29 103.78 C 275.94 103.79 275.23 103.80 274.88 103.81 C 267.08 103.70 259.28 103.91 251.49 103.59 L 250.23 103.40 C 250.95 103.34 252.38 103.21 253.10 103.14 C 254.99 102.98 256.89 102.83 258.80 102.70 C 259.27 95.38 259.07 88.03 259.01 80.70 Z" />
<path fill="#fefefe" opacity="1.00" d=" M 319.89 80.70 C 329.39 80.69 338.90 80.69 348.41 80.70 C 348.41 88.39 348.42 96.08 348.40 103.78 C 338.90 103.77 329.39 103.78 319.89 103.77 C 319.88 96.08 319.88 88.39 319.89 80.70 Z" />
<path fill="#fefefe" opacity="1.00" d=" M 281.75 118.35 C 288.47 118.35 295.19 118.35 301.91 118.35 C 301.92 126.04 301.91 133.73 301.92 141.42 C 286.37 141.43 270.83 141.42 255.28 141.41 C 255.27 139.65 255.27 137.89 255.26 136.13 C 254.77 135.75 253.79 134.99 253.30 134.61 C 253.34 129.20 253.36 123.78 253.16 118.37 C 262.69 118.37 272.22 118.33 281.75 118.35 Z" />
<path fill="#fefefe" opacity="1.00" d=" M 319.94 118.33 C 329.43 118.38 338.92 118.32 348.42 118.36 C 348.40 126.05 348.42 133.73 348.41 141.42 C 338.90 141.42 329.39 141.43 319.89 141.42 C 319.91 133.72 319.83 126.02 319.94 118.33 Z" />
<path fill="#fefefe" opacity="1.00" d=" M 254.21 156.02 C 270.11 155.96 286.01 155.98 301.91 155.99 C 301.91 163.68 301.91 171.37 301.91 179.06 C 295.32 179.07 288.73 179.06 282.14 179.07 C 272.84 179.07 263.54 179.06 254.24 179.06 C 254.34 175.21 253.94 171.37 253.78 167.53 C 254.24 163.71 254.55 159.86 254.21 156.02 Z" />
<path fill="#fefefe" opacity="1.00" d=" M 319.89 155.99 C 329.40 155.98 338.91 155.99 348.42 155.99 C 348.42 163.68 348.42 171.37 348.42 179.07 C 338.91 179.08 329.40 179.06 319.89 179.06 C 319.88 171.37 319.88 163.68 319.89 155.99 Z" />
<path fill="#fefefe" opacity="1.00" d=" M 264.05 193.24 C 268.34 193.31 272.63 193.23 276.92 193.25 C 285.25 193.25 293.58 193.26 301.91 193.25 C 301.92 200.95 301.91 208.64 301.91 216.33 C 287.63 216.34 273.34 216.34 259.06 216.33 C 259.08 208.64 259.05 200.95 259.04 193.26 C 260.71 193.25 262.38 193.24 264.05 193.24 Z" />
<path fill="#fefefe" opacity="1.00" d=" M 319.89 193.25 C 329.42 193.27 338.95 193.22 348.49 193.28 C 348.45 200.97 348.48 208.65 348.47 216.34 C 338.94 216.34 329.41 216.34 319.89 216.33 C 319.88 208.64 319.88 200.95 319.89 193.25 Z" />
<path fill="#fefefe" opacity="1.00" d=" M 259.06 230.91 C 273.35 230.91 287.63 230.91 301.91 230.92 C 301.91 238.60 301.91 246.29 301.91 253.99 C 288.16 254.03 274.40 253.90 260.65 254.05 C 259.78 252.49 258.85 250.86 258.99 249.00 C 258.93 242.97 259.20 236.94 259.06 230.91 Z" />
<path fill="#fefefe" opacity="1.00" d=" M 319.89 230.92 C 329.39 230.91 338.90 230.91 348.41 230.92 C 348.41 238.61 348.41 246.30 348.41 253.99 C 338.90 253.99 329.39 253.99 319.89 253.99 C 319.88 246.30 319.88 238.61 319.89 230.92 Z" />
</g>
<g id="#605954ff">
<path fill="#605954" opacity="1.00" d=" M 105.05 44.17 C 112.30 43.58 119.58 43.37 126.84 43.67 C 126.79 50.79 126.76 57.90 126.93 65.01 C 126.59 65.24 125.90 65.70 125.56 65.93 C 125.26 66.14 124.65 66.54 124.34 66.75 C 117.92 66.13 111.45 66.51 105.03 65.85 C 104.56 58.64 104.54 51.38 105.05 44.17 Z" />
<path fill="#605954" opacity="1.00" d=" M 108.06 132.71 C 116.30 134.89 124.52 137.13 132.73 139.39 C 134.04 139.76 135.35 140.14 136.66 140.51 C 134.51 141.26 132.25 141.61 129.98 141.50 C 122.64 141.31 115.29 141.54 107.96 140.91 C 107.47 138.19 107.57 135.42 108.06 132.71 Z" />
</g>
<g id="#736d68ff">
<path fill="#736d68" opacity="1.00" d=" M 137.15 44.27 C 140.46 44.16 143.76 44.08 147.07 44.01 C 147.08 51.50 147.10 58.99 147.03 66.47 C 144.84 66.47 142.65 66.46 140.47 66.45 C 139.01 63.95 137.57 61.43 136.23 58.87 C 137.18 54.06 137.10 49.14 137.15 44.27 Z" />
</g>
<g id="#7b7671ff">
<path fill="#7b7671" opacity="1.00" d=" M 147.07 44.01 C 150.39 43.95 153.72 43.87 157.05 43.85 C 156.90 51.40 156.95 58.95 156.96 66.50 C 153.65 66.49 150.34 66.48 147.03 66.47 C 147.10 58.99 147.08 51.50 147.07 44.01 Z" />
</g>
<g id="#837e7aff">
<path fill="#837e7a" opacity="1.00" d=" M 157.05 43.85 C 159.68 43.84 162.31 43.81 164.94 43.67 C 165.10 51.28 165.09 58.89 165.04 66.50 C 162.35 66.51 159.65 66.50 156.96 66.50 C 156.95 58.95 156.90 51.40 157.05 43.85 Z" />
<path fill="#837e7a" opacity="1.00" d=" M 164.26 194.50 C 165.84 201.67 165.04 209.04 165.04 216.32 C 160.69 216.34 156.33 216.30 151.97 216.30 C 156.03 209.01 160.17 201.76 164.26 194.50 Z" />
</g>
<g id="#8b8581ff">
<path fill="#8b8581" opacity="1.00" d=" M 164.94 43.67 C 165.77 43.62 167.43 43.52 168.26 43.47 C 171.14 43.31 174.03 43.35 176.91 43.43 C 176.90 44.35 176.89 46.20 176.88 47.12 C 175.99 47.12 174.22 47.11 173.34 47.11 C 173.54 53.58 174.37 60.03 174.17 66.51 C 171.13 66.51 168.09 66.51 165.04 66.50 C 165.09 58.89 165.10 51.28 164.94 43.67 Z" />
<path fill="#8b8581" opacity="1.00" d=" M 163.01 80.71 C 167.13 80.75 171.24 80.69 175.36 80.55 L 175.37 80.86 C 175.75 88.23 176.26 95.60 176.70 102.98 C 172.18 103.22 167.65 103.13 163.15 102.70 C 163.00 95.37 163.23 88.04 163.01 80.71 Z" />
</g>
<g id="#9a9693ff">
<path fill="#9a9693" opacity="1.00" d=" M 176.91 43.43 C 182.02 43.51 187.12 43.31 192.23 43.45 C 192.22 44.37 192.22 46.21 192.22 47.13 C 189.28 47.11 186.33 47.12 183.39 47.12 C 181.22 47.13 179.05 47.12 176.88 47.12 C 176.89 46.20 176.90 44.35 176.91 43.43 Z" />
</g>
<g id="#b1adabff">
<path fill="#b1adab" opacity="1.00" d=" M 192.23 43.45 C 199.22 43.56 206.21 43.31 213.20 43.43 C 213.20 51.12 213.43 58.82 212.94 66.50 C 206.93 66.53 200.92 66.56 194.92 66.33 C 195.18 59.94 195.73 53.56 196.03 47.17 C 194.76 47.16 193.49 47.15 192.22 47.13 C 192.22 46.21 192.22 44.37 192.23 43.45 Z" />
</g>
<g id="#c6c3c1ff">
<path fill="#c6c3c1" opacity="1.00" d=" M 213.20 43.43 C 218.74 43.50 224.27 43.34 229.81 43.41 C 229.66 50.35 229.41 57.31 230.11 64.23 C 229.80 64.80 229.18 65.93 228.87 66.50 C 223.56 66.55 218.25 66.45 212.94 66.50 C 213.43 58.82 213.20 51.12 213.20 43.43 Z" />
</g>
<g id="#d7d5d4ff">
<path fill="#d7d5d4" opacity="1.00" d=" M 229.81 43.41 C 232.53 43.43 235.24 43.42 237.96 43.43 C 238.12 49.46 238.54 55.54 237.44 61.51 C 236.07 60.66 234.67 59.86 233.27 59.06 C 232.20 60.77 231.11 62.47 230.11 64.23 C 229.41 57.31 229.66 50.35 229.81 43.41 Z" />
<path fill="#d7d5d4" opacity="1.00" d=" M 231.70 118.32 C 235.34 118.32 238.98 118.37 242.62 118.44 C 240.17 120.12 237.75 121.85 235.03 123.07 C 234.01 123.53 233.00 123.99 231.98 124.44 C 231.88 122.40 231.78 120.36 231.70 118.32 Z" />
</g>
<g id="#e2e1e0ff">
<path fill="#e2e1e0" opacity="1.00" d=" M 237.96 43.43 C 240.62 43.43 243.28 43.43 245.94 43.42 C 246.03 51.14 246.18 58.85 245.90 66.57 L 244.70 66.53 C 244.43 66.53 243.89 66.51 243.62 66.50 C 241.62 64.77 239.62 63.01 237.44 61.51 C 238.54 55.54 238.12 49.46 237.96 43.43 Z" />
<path fill="#e2e1e0" opacity="1.00" d=" M 245.51 82.61 C 246.32 89.40 245.81 96.23 245.93 103.05 C 243.70 102.95 241.47 102.87 239.23 102.79 C 239.15 98.98 238.87 95.18 238.30 91.42 C 240.59 88.39 243.04 85.49 245.51 82.61 Z" />
<path fill="#e2e1e0" opacity="1.00" d=" M 244.33 230.98 L 244.75 230.91 L 246.05 230.76 C 246.15 236.87 245.69 242.98 245.95 249.08 C 245.92 250.89 246.87 252.46 247.61 254.05 C 245.28 253.99 242.94 253.99 240.61 254.04 C 237.37 248.41 239.58 241.60 238.63 235.45 C 240.55 233.99 242.38 232.41 244.33 230.98 Z" />
</g>
<g id="#ebebeaff">
<path fill="#ebebea" opacity="1.00" d=" M 245.94 43.42 C 248.33 43.43 250.72 43.42 253.11 43.44 C 253.10 51.12 252.84 58.81 252.95 66.49 C 250.59 66.49 248.24 66.49 245.90 66.57 C 246.18 58.85 246.03 51.14 245.94 43.42 Z" />
<path fill="#ebebea" opacity="1.00" d=" M 245.96 80.69 L 247.04 80.70 C 249.05 80.70 251.07 80.70 253.09 80.70 C 253.07 88.18 253.11 95.66 253.10 103.14 C 252.38 103.21 250.95 103.34 250.23 103.40 C 248.80 103.26 247.37 103.13 245.93 103.05 C 245.81 96.23 246.32 89.40 245.51 82.61 C 245.62 82.13 245.85 81.17 245.96 80.69 Z" />
<path fill="#ebebea" opacity="1.00" d=" M 245.06 193.26 C 247.69 193.26 250.33 193.26 252.97 193.26 C 253.12 200.95 253.09 208.64 252.94 216.34 C 250.32 216.34 247.70 216.33 245.07 216.33 C 245.07 208.64 245.18 200.95 245.06 193.26 Z" />
<path fill="#ebebea" opacity="1.00" d=" M 246.05 230.76 C 248.38 230.92 250.72 230.93 253.06 230.92 C 253.21 238.61 252.60 246.33 253.63 253.98 C 251.62 253.99 249.61 254.01 247.61 254.05 C 246.87 252.46 245.92 250.89 245.95 249.08 C 245.69 242.98 246.15 236.87 246.05 230.76 Z" />
</g>
<g id="#f6f5f5ff">
<path fill="#f6f5f5" opacity="1.00" d=" M 253.11 43.44 C 255.04 43.79 256.96 44.18 258.89 44.53 C 259.31 51.85 259.01 59.17 259.09 66.50 C 257.04 66.50 254.99 66.50 252.95 66.49 C 252.84 58.81 253.10 51.12 253.11 43.44 Z" />
<path fill="#f6f5f5" opacity="1.00" d=" M 253.09 80.70 C 255.06 80.70 257.03 80.70 259.01 80.70 C 259.07 88.03 259.27 95.38 258.80 102.70 C 256.89 102.83 254.99 102.98 253.10 103.14 C 253.11 95.66 253.07 88.18 253.09 80.70 Z" />
<path fill="#f6f5f5" opacity="1.00" d=" M 252.97 193.26 C 254.99 193.26 257.01 193.26 259.04 193.26 C 259.05 200.95 259.08 208.64 259.06 216.33 C 257.02 216.33 254.98 216.33 252.94 216.34 C 253.09 208.64 253.12 200.95 252.97 193.26 Z" />
<path fill="#f6f5f5" opacity="1.00" d=" M 253.06 230.92 C 255.06 230.91 257.06 230.91 259.06 230.91 C 259.20 236.94 258.93 242.97 258.99 249.00 C 258.85 250.86 259.78 252.49 260.65 254.05 C 258.30 253.99 255.96 253.97 253.63 253.98 C 252.60 246.33 253.21 238.61 253.06 230.92 Z" />
</g>
<g id="#fdf472ff">
<path fill="#fdf472" opacity="1.00" d=" M 173.34 47.11 C 174.22 47.11 175.99 47.12 176.88 47.12 C 179.05 47.12 181.22 47.13 183.39 47.12 C 184.37 53.22 183.78 59.41 184.17 65.55 C 187.76 65.68 191.35 65.92 194.92 66.33 L 194.90 66.68 C 188.18 66.53 181.46 66.49 174.73 66.51 C 174.59 66.51 174.31 66.51 174.17 66.51 C 174.37 60.03 173.54 53.58 173.34 47.11 Z" />
<path fill="#fdf472" opacity="1.00" d=" M 174.83 155.98 C 177.87 155.99 180.91 156.00 183.95 156.00 C 184.13 163.69 183.88 171.38 184.06 179.07 C 181.00 179.07 177.94 179.06 174.88 179.07 C 174.69 171.38 174.65 163.68 174.83 155.98 Z" />
<path fill="#fdf472" opacity="1.00" d=" M 175.49 231.05 L 175.52 230.75 C 178.31 230.85 181.11 230.93 183.92 230.94 C 184.06 237.14 184.23 243.35 183.83 249.54 C 180.46 249.66 177.10 249.86 173.75 250.24 C 174.46 243.85 174.87 237.44 175.49 231.05 Z" />
</g>
<g id="#fdf580ff">
<path fill="#fdf580" opacity="1.00" d=" M 183.39 47.12 C 186.33 47.12 189.28 47.11 192.22 47.13 C 193.49 47.15 194.76 47.16 196.03 47.17 C 195.73 53.56 195.18 59.94 194.92 66.33 C 191.35 65.92 187.76 65.68 184.17 65.55 C 183.78 59.41 184.37 53.22 183.39 47.12 Z" />
<path fill="#fdf580" opacity="1.00" d=" M 183.95 156.00 C 187.33 156.00 190.72 156.01 194.10 156.03 C 194.18 163.68 194.25 171.33 194.13 178.98 C 190.77 179.03 187.42 179.07 184.06 179.07 C 183.88 171.38 184.13 163.69 183.95 156.00 Z" />
<path fill="#fdf580" opacity="1.00" d=" M 183.92 230.94 C 187.24 230.93 190.56 230.90 193.89 230.92 C 194.35 237.39 195.02 243.85 195.47 250.33 C 194.32 250.34 193.18 250.36 192.03 250.39 C 187.93 250.40 183.82 250.41 179.71 250.46 C 177.72 250.44 175.73 250.36 173.75 250.24 C 177.10 249.86 180.46 249.66 183.83 249.54 C 184.23 243.35 184.06 237.14 183.92 230.94 Z" />
</g>
<g id="#fcef3dff">
<path fill="#fcef3d" opacity="1.00" d=" M 126.93 65.01 C 130.01 62.93 133.07 60.82 136.23 58.87 C 137.57 61.43 139.01 63.95 140.47 66.45 L 140.75 66.94 C 135.70 66.42 130.62 66.29 125.56 65.93 C 125.90 65.70 126.59 65.24 126.93 65.01 Z" />
</g>
<g id="#fefacaff">
<path fill="#fefaca" opacity="1.00" d=" M 233.27 59.06 C 234.67 59.86 236.07 60.66 237.44 61.51 C 239.62 63.01 241.62 64.77 243.62 66.50 C 238.70 66.49 233.78 66.51 228.87 66.50 C 229.18 65.93 229.80 64.80 230.11 64.23 C 231.11 62.47 232.20 60.77 233.27 59.06 Z" />
</g>
<g id="#fbec17ff">
<path fill="#fbec17" opacity="1.00" d=" M 124.34 66.75 C 124.65 66.54 125.26 66.14 125.56 65.93 C 130.62 66.29 135.70 66.42 140.75 66.94 C 143.38 71.56 146.01 76.18 148.65 80.79 C 147.10 80.78 145.56 80.76 144.03 80.74 C 136.95 80.63 129.87 80.80 122.80 81.29 L 122.27 80.65 C 120.03 77.96 117.76 75.30 115.67 72.49 C 118.60 70.63 121.46 68.68 124.34 66.75 Z" />
<path fill="#fbec17" opacity="1.00" d=" M 228.87 66.50 C 233.78 66.51 238.70 66.49 243.62 66.50 C 243.89 66.51 244.43 66.53 244.70 66.53 C 247.83 68.40 250.73 70.63 253.79 72.60 C 251.57 75.32 249.35 78.05 247.04 80.70 L 245.96 80.69 C 239.96 80.65 233.95 80.71 227.95 80.70 C 225.59 80.69 223.23 80.69 220.87 80.69 C 223.49 75.93 226.27 71.27 228.87 66.50 Z" />
<path fill="#fbec17" opacity="1.00" d=" M 174.73 66.51 C 181.46 66.49 188.18 66.53 194.90 66.68 C 194.63 71.35 194.35 76.02 194.04 80.69 C 187.82 80.67 181.59 80.63 175.37 80.86 L 175.36 80.55 C 175.03 75.88 174.69 71.20 174.73 66.51 Z" />
<path fill="#fbec17" opacity="1.00" d=" M 84.69 126.35 C 87.63 118.66 90.36 110.88 93.42 103.23 C 103.36 108.26 113.55 112.78 123.44 117.89 C 114.05 118.39 104.59 117.88 95.27 119.40 C 95.21 122.68 95.18 125.96 95.17 129.23 C 91.67 128.29 88.17 127.36 84.69 126.35 Z" />
<path fill="#fbec17" opacity="1.00" d=" M 141.51 104.01 C 146.80 104.03 152.09 104.04 157.38 103.77 C 158.86 103.81 160.34 103.85 161.82 103.90 C 163.51 106.88 165.22 109.86 166.93 112.84 C 170.24 111.48 173.64 110.35 177.10 109.46 C 176.99 107.59 176.88 105.73 176.76 103.86 C 182.05 103.64 187.34 103.74 192.63 103.97 C 192.52 105.80 192.41 107.63 192.30 109.46 C 195.79 110.37 199.22 111.48 202.57 112.81 C 204.19 109.89 205.82 106.98 207.46 104.08 L 207.73 103.60 C 214.47 103.75 221.22 103.79 227.96 103.79 C 224.08 108.75 220.01 113.55 216.00 118.40 L 214.97 118.40 C 211.68 118.38 208.39 118.36 205.10 118.36 C 202.37 118.36 199.65 118.35 196.92 118.34 C 195.05 118.33 193.18 118.33 191.31 118.35 C 178.63 117.72 165.94 118.38 153.26 118.25 C 153.14 118.10 152.90 117.80 152.78 117.66 C 149.03 113.10 145.28 108.54 141.51 104.01 Z" />
<path fill="#fbec17" opacity="1.00" d=" M 274.88 103.81 C 275.23 103.80 275.94 103.79 276.29 103.78 C 278.11 108.64 279.91 113.50 281.75 118.35 C 272.22 118.33 262.69 118.37 253.16 118.37 C 250.33 118.35 247.50 118.29 244.68 118.33 C 254.80 113.61 264.81 108.65 274.88 103.81 Z" />
<path fill="#fbec17" opacity="1.00" d=" M 199.31 141.45 C 201.23 141.43 203.15 141.41 205.07 141.41 C 210.08 141.41 215.09 141.45 220.11 141.42 C 222.89 141.40 225.67 141.46 228.45 141.47 C 227.11 141.87 225.78 142.29 224.44 142.68 C 224.94 147.13 224.87 151.62 224.23 156.05 L 223.56 156.04 C 222.37 156.03 221.19 156.02 220.00 156.01 C 216.65 155.99 213.30 155.99 209.95 155.99 C 204.66 155.97 199.38 156.07 194.10 156.03 C 190.72 156.01 187.33 156.00 183.95 156.00 C 180.91 156.00 177.87 155.99 174.83 155.98 C 166.26 155.84 157.69 156.24 149.11 156.11 C 147.81 156.07 146.51 156.03 145.22 155.98 C 144.45 151.40 144.62 146.75 144.87 142.13 C 152.55 141.10 160.30 141.90 168.02 141.75 C 178.45 141.62 188.89 142.14 199.31 141.45 Z" />
<path fill="#fbec17" opacity="1.00" d=" M 86.16 176.02 C 90.53 174.77 94.87 173.43 99.29 172.35 C 99.64 174.46 99.98 176.58 100.34 178.70 C 107.21 179.10 114.10 179.08 120.98 178.93 C 125.21 178.82 129.43 179.19 133.65 179.47 C 124.96 183.82 116.21 188.04 107.50 192.36 C 105.20 193.47 102.90 194.58 100.61 195.72 C 98.58 196.73 96.55 197.73 94.52 198.74 C 91.70 191.18 88.95 183.59 86.16 176.02 Z" />
<path fill="#fbec17" opacity="1.00" d=" M 157.42 179.08 L 158.21 179.08 C 163.77 179.05 169.32 179.09 174.88 179.07 C 177.94 179.06 181.00 179.07 184.06 179.07 C 187.42 179.07 190.77 179.03 194.13 178.98 C 199.40 178.89 204.68 179.24 209.95 178.99 C 210.36 178.93 211.18 178.82 211.59 178.77 C 215.68 183.51 219.69 188.32 223.49 193.30 C 217.18 193.17 210.87 193.25 204.57 193.43 L 204.40 193.12 C 203.00 190.63 201.59 188.16 200.17 185.69 C 196.93 186.76 193.62 187.64 190.28 188.33 C 190.41 189.92 190.55 191.50 190.68 193.09 C 186.69 193.25 182.70 193.33 178.71 193.23 C 178.85 191.59 178.99 189.96 179.13 188.33 C 175.77 187.63 172.47 186.74 169.21 185.69 C 167.86 188.08 166.51 190.47 165.17 192.87 C 165.14 192.93 165.08 193.05 165.04 193.10 C 158.65 193.04 152.26 193.37 145.88 193.12 C 149.75 188.46 153.60 183.78 157.42 179.08 Z" />
<path fill="#fbec17" opacity="1.00" d=" M 235.08 179.15 C 238.07 179.14 241.06 179.05 244.05 179.05 C 247.44 179.05 250.84 179.07 254.24 179.06 C 263.54 179.06 272.84 179.07 282.14 179.07 C 280.41 183.80 278.67 188.53 276.92 193.25 C 272.63 193.23 268.34 193.31 264.05 193.24 C 254.28 188.80 244.74 183.83 235.08 179.15 Z" />
<path fill="#fbec17" opacity="1.00" d=" M 126.51 216.69 C 126.71 216.44 127.13 215.93 127.34 215.68 C 131.89 216.21 136.47 216.36 141.06 216.27 C 144.69 216.25 148.33 216.29 151.97 216.30 C 149.26 221.18 146.45 226.00 143.83 230.93 L 143.59 230.93 C 137.53 230.87 131.46 230.94 125.42 231.50 C 124.86 231.08 124.30 230.67 123.75 230.27 C 122.00 228.97 120.26 227.67 118.52 226.37 C 121.19 223.15 123.84 219.91 126.51 216.69 Z" />
<path fill="#fbec17" opacity="1.00" d=" M 176.74 216.48 L 176.76 216.17 C 181.99 216.38 187.22 216.38 192.45 216.33 L 192.76 216.33 C 193.04 221.20 193.49 226.06 193.89 230.92 C 190.56 230.90 187.24 230.93 183.92 230.94 C 181.11 230.93 178.31 230.85 175.52 230.75 C 175.94 225.99 176.34 221.23 176.74 216.48 Z" />
<path fill="#fbec17" opacity="1.00" d=" M 217.53 216.35 C 218.12 216.35 219.32 216.34 219.91 216.34 C 222.96 216.33 226.00 216.33 229.05 216.33 C 233.41 216.34 237.78 216.36 242.14 216.35 L 242.66 216.34 C 245.38 219.71 248.15 223.04 250.89 226.39 C 248.85 227.90 246.88 229.52 244.75 230.91 L 244.33 230.98 C 238.14 230.93 231.94 230.78 225.75 231.11 L 225.55 230.76 C 222.90 225.94 220.13 221.19 217.53 216.35 Z" />
<path fill="#fbec17" opacity="1.00" d=" M 956.31 299.69 C 965.53 299.71 974.76 299.71 984.00 299.70 C 987.46 299.74 990.97 299.39 994.38 300.18 C 994.28 302.68 994.26 305.19 994.30 307.69 C 989.65 307.79 985.01 307.80 980.37 307.66 C 980.02 315.59 980.26 323.54 980.26 331.47 C 976.97 331.52 973.69 331.53 970.42 331.54 C 970.43 323.61 970.48 315.68 970.40 307.75 C 965.69 307.76 960.98 307.75 956.27 307.77 C 956.29 305.08 956.30 302.38 956.31 299.69 Z" />
</g>
<g id="#5c5650ff">
<path fill="#5c5650" opacity="1.00" d=" M 103.08 81.22 C 107.04 80.79 111.04 80.61 115.02 81.00 C 115.20 88.17 114.96 95.33 115.20 102.49 C 117.94 102.85 120.68 103.25 123.42 103.60 C 116.66 104.82 109.78 103.75 103.05 102.83 C 102.56 95.65 102.52 88.41 103.08 81.22 Z" />
</g>
<g id="#645e59ff">
<path fill="#645e59" opacity="1.00" d=" M 115.02 81.00 C 117.44 80.89 119.85 80.77 122.27 80.65 L 122.80 81.29 C 128.98 88.80 135.12 96.34 141.34 103.81 C 135.38 104.16 129.37 104.18 123.42 103.60 C 120.68 103.25 117.94 102.85 115.20 102.49 C 114.96 95.33 115.20 88.17 115.02 81.00 Z" />
</g>
<g id="#fcf040ff">
<path fill="#fcf040" opacity="1.00" d=" M 122.80 81.29 C 129.87 80.80 136.95 80.63 144.03 80.74 C 144.19 88.09 143.75 95.44 144.16 102.78 C 148.58 102.80 152.99 103.16 157.38 103.77 C 152.09 104.04 146.80 104.03 141.51 104.01 L 141.34 103.81 C 135.12 96.34 128.98 88.80 122.80 81.29 Z" />
<path fill="#fcf040" opacity="1.00" d=" M 133.21 122.52 C 136.98 124.30 140.73 126.10 144.49 127.89 C 144.85 132.13 145.07 136.38 145.18 140.63 C 149.43 140.75 153.68 140.81 157.94 140.86 C 161.32 140.91 164.69 140.92 168.07 140.96 C 173.09 141.04 178.11 141.19 183.14 141.16 C 187.76 141.14 192.38 141.15 197.00 141.38 C 197.58 141.40 198.73 141.43 199.31 141.45 C 188.89 142.14 178.45 141.62 168.02 141.75 C 160.30 141.90 152.55 141.10 144.87 142.13 C 142.06 142.21 139.37 141.13 136.66 140.51 C 135.35 140.14 134.04 139.76 132.73 139.39 C 132.62 133.76 132.64 128.12 133.21 122.52 Z" />
<path fill="#fcf040" opacity="1.00" d=" M 127.34 215.68 C 131.76 210.27 136.19 204.87 140.62 199.48 C 141.29 205.05 141.28 210.67 141.06 216.27 C 136.47 216.36 131.89 216.21 127.34 215.68 Z" />
</g>
<g id="#fcf14cff">
<path fill="#fcf14c" opacity="1.00" d=" M 144.03 80.74 C 145.56 80.76 147.10 80.78 148.65 80.79 C 152.99 88.52 157.44 96.19 161.82 103.90 C 160.34 103.85 158.86 103.81 157.38 103.77 C 152.99 103.16 148.58 102.80 144.16 102.78 C 143.75 95.44 144.19 88.09 144.03 80.74 Z" />
</g>
<g id="#807b77ff">
<path fill="#807b77" opacity="1.00" d=" M 148.65 80.79 C 153.43 80.71 158.22 80.67 163.01 80.71 C 163.23 88.04 163.00 95.37 163.15 102.70 C 167.65 103.13 172.18 103.22 176.70 102.98 C 176.72 103.20 176.75 103.64 176.76 103.86 C 171.78 103.99 166.80 103.89 161.82 103.90 C 157.44 96.19 152.99 88.52 148.65 80.79 Z" />
</g>
<g id="#fdf47aff">
<path fill="#fdf47a" opacity="1.00" d=" M 175.37 80.86 C 181.59 80.63 187.82 80.67 194.04 80.69 C 193.53 88.34 193.04 95.98 192.65 103.63 L 192.63 103.97 C 187.34 103.74 182.05 103.64 176.76 103.86 C 176.75 103.64 176.72 103.20 176.70 102.98 C 176.26 95.60 175.75 88.23 175.37 80.86 Z" />
<path fill="#fdf47a" opacity="1.00" d=" M 178.71 193.23 C 182.70 193.33 186.69 193.25 190.68 193.09 L 190.71 193.41 C 191.21 201.06 192.16 208.67 192.45 216.33 C 187.22 216.38 181.99 216.38 176.76 216.17 C 177.38 208.52 178.02 200.87 178.71 193.23 Z" />
</g>
<g id="#aba8a5ff">
<path fill="#aba8a5" opacity="1.00" d=" M 194.04 80.69 C 198.02 80.70 201.99 80.69 205.96 80.69 C 205.95 86.82 205.66 92.94 205.84 99.06 C 205.81 100.88 206.73 102.48 207.46 104.08 C 202.53 103.66 197.58 103.79 192.65 103.63 C 193.04 95.98 193.53 88.34 194.04 80.69 Z" />
</g>
<g id="#b8b5b3ff">
<path fill="#b8b5b3" opacity="1.00" d=" M 205.96 80.69 C 210.81 80.70 215.65 80.67 220.49 80.69 C 216.52 88.47 212.08 96.02 207.73 103.60 L 207.46 104.08 C 206.73 102.48 205.81 100.88 205.84 99.06 C 205.66 92.94 205.95 86.82 205.96 80.69 Z" />
</g>
<g id="#fef9b3ff">
<path fill="#fef9b3" opacity="1.00" d=" M 220.49 80.69 L 220.87 80.69 C 223.23 80.69 225.59 80.69 227.95 80.70 C 227.82 88.22 227.81 95.74 228.35 103.25 L 228.34 103.79 L 227.96 103.79 C 221.22 103.79 214.47 103.75 207.73 103.60 C 212.08 96.02 216.52 88.47 220.49 80.69 Z" />
</g>
<g id="#fefac8ff">
<path fill="#fefac8" opacity="1.00" d=" M 227.95 80.70 C 233.95 80.71 239.96 80.65 245.96 80.69 C 245.85 81.17 245.62 82.13 245.51 82.61 C 243.04 85.49 240.59 88.39 238.30 91.42 C 235.12 95.48 231.59 99.24 228.35 103.25 C 227.81 95.74 227.82 88.22 227.95 80.70 Z" />
<path fill="#fefac8" opacity="1.00" d=" M 225.75 231.11 C 231.94 230.78 238.14 230.93 244.33 230.98 C 242.38 232.41 240.55 233.99 238.63 235.45 C 236.21 237.27 233.80 239.08 231.47 241.01 C 229.60 237.68 227.59 234.45 225.75 231.11 Z" />
</g>
<g id="#d8d7d5ff">
<path fill="#d8d7d5" opacity="1.00" d=" M 228.35 103.25 C 231.59 99.24 235.12 95.48 238.30 91.42 C 238.87 95.18 239.15 98.98 239.23 102.79 C 241.47 102.87 243.70 102.95 245.93 103.05 C 247.37 103.13 248.80 103.26 250.23 103.40 L 251.49 103.59 C 243.78 104.14 236.06 103.59 228.34 103.79 L 228.35 103.25 Z" />
<path fill="#d8d7d5" opacity="1.00" d=" M 231.47 241.01 C 233.80 239.08 236.21 237.27 238.63 235.45 C 239.58 241.60 237.37 248.41 240.61 254.04 C 238.27 253.99 235.93 253.99 233.59 254.04 C 231.19 250.11 232.39 245.32 231.47 241.01 Z" />
</g>
<g id="#746f6aff">
<path fill="#746f6a" opacity="1.00" d=" M 152.78 117.66 C 152.90 117.80 153.14 118.10 153.26 118.25 C 154.03 119.19 154.79 120.14 155.56 121.09 C 153.18 123.92 151.02 126.93 149.09 130.08 C 147.55 129.35 146.02 128.62 144.49 127.89 C 140.73 126.10 136.98 124.30 133.21 122.52 C 130.85 121.39 128.53 120.20 126.21 119.01 C 135.00 117.59 144.01 119.32 152.78 117.66 Z" />
</g>
<g id="#fcee2cff">
<path fill="#fcee2c" opacity="1.00" d=" M 95.27 119.40 C 104.59 117.88 114.05 118.39 123.44 117.89 C 124.40 118.15 125.31 118.58 126.21 119.01 C 128.53 120.20 130.85 121.39 133.21 122.52 C 132.64 128.12 132.62 133.76 132.73 139.39 C 124.52 137.13 116.30 134.89 108.06 132.71 C 103.76 131.58 99.47 130.39 95.17 129.23 C 95.18 125.96 95.21 122.68 95.27 119.40 Z" />
</g>
<g id="#fcf150ff">
<path fill="#fcf150" opacity="1.00" d=" M 153.26 118.25 C 165.94 118.38 178.63 117.72 191.31 118.35 C 188.58 118.48 185.86 118.71 183.13 118.76 C 178.09 118.75 173.05 118.95 168.01 119.08 C 164.74 119.11 161.47 119.16 158.19 119.27 C 157.72 126.46 158.05 133.66 157.94 140.86 C 153.68 140.81 149.43 140.75 145.18 140.63 C 145.07 136.38 144.85 132.13 144.49 127.89 C 146.02 128.62 147.55 129.35 149.09 130.08 C 151.02 126.93 153.18 123.92 155.56 121.09 C 154.79 120.14 154.03 119.19 153.26 118.25 Z" />
</g>
<g id="#fcf25dff">
<path fill="#fcf25d" opacity="1.00" d=" M 158.19 119.27 C 161.47 119.16 164.74 119.11 168.01 119.08 C 168.14 126.37 168.13 133.66 168.07 140.96 C 164.69 140.92 161.32 140.91 157.94 140.86 C 158.05 133.66 157.72 126.46 158.19 119.27 Z" />
<path fill="#fcf25d" opacity="1.00" d=" M 149.11 156.11 C 157.69 156.24 166.26 155.84 174.83 155.98 C 174.65 163.68 174.69 171.38 174.88 179.07 C 169.32 179.09 163.77 179.05 158.21 179.08 C 155.76 176.45 153.42 173.74 151.20 170.93 C 150.69 171.17 149.67 171.67 149.16 171.92 C 149.39 166.65 149.36 161.38 149.11 156.11 Z" />
</g>
<g id="#fdf36dff">
<path fill="#fdf36d" opacity="1.00" d=" M 168.01 119.08 C 173.05 118.95 178.09 118.75 183.13 118.76 C 182.99 126.22 182.85 133.69 183.14 141.16 C 178.11 141.19 173.09 141.04 168.07 140.96 C 168.13 133.66 168.14 126.37 168.01 119.08 Z" />
</g>
<g id="#fdf582ff">
<path fill="#fdf582" opacity="1.00" d=" M 183.13 118.76 C 185.86 118.71 188.58 118.48 191.31 118.35 C 193.18 118.33 195.05 118.33 196.92 118.34 C 196.89 126.02 196.82 133.70 197.00 141.38 C 192.38 141.15 187.76 141.14 183.14 141.16 C 182.85 133.69 182.99 126.22 183.13 118.76 Z" />
</g>
<g id="#fdf692ff">
<path fill="#fdf692" opacity="1.00" d=" M 196.92 118.34 C 199.65 118.35 202.37 118.36 205.10 118.36 C 205.16 126.04 205.15 133.73 205.07 141.41 C 203.15 141.41 201.23 141.43 199.31 141.45 C 198.73 141.43 197.58 141.40 197.00 141.38 C 196.82 133.70 196.89 126.02 196.92 118.34 Z" />
</g>
<g id="#fdf7a3ff">
<path fill="#fdf7a3" opacity="1.00" d=" M 205.10 118.36 C 208.39 118.36 211.68 118.38 214.97 118.40 C 214.71 119.46 214.44 120.53 214.16 121.59 C 216.38 124.30 218.42 127.17 220.27 130.14 C 220.17 133.90 220.14 137.66 220.11 141.42 C 215.09 141.45 210.08 141.41 205.07 141.41 C 205.15 133.73 205.16 126.04 205.10 118.36 Z" />
</g>
<g id="#c8c6c4ff">
<path fill="#c8c6c4" opacity="1.00" d=" M 214.97 118.40 L 216.00 118.40 C 221.23 118.38 226.46 118.31 231.70 118.32 C 231.78 120.36 231.88 122.40 231.98 124.44 C 228.02 126.23 224.20 128.30 220.27 130.14 C 218.42 127.17 216.38 124.30 214.16 121.59 C 214.44 120.53 214.71 119.46 214.97 118.40 Z" />
</g>
<g id="#fefbd3ff">
<path fill="#fefbd3" opacity="1.00" d=" M 242.62 118.44 C 242.94 118.42 243.60 118.39 243.92 118.37 C 243.96 124.69 243.92 131.02 244.21 137.34 C 241.08 138.12 237.91 138.76 234.87 139.83 C 234.81 134.24 234.87 128.66 235.03 123.07 C 237.75 121.85 240.17 120.12 242.62 118.44 Z" />
<path fill="#fefbd3" opacity="1.00" d=" M 235.06 162.21 L 236.20 162.53 C 238.83 163.29 241.46 164.07 244.11 164.82 C 243.95 169.56 243.93 174.31 244.05 179.05 C 241.06 179.05 238.07 179.14 235.08 179.15 L 234.83 179.12 C 235.14 173.49 235.13 167.84 235.06 162.21 Z" />
</g>
<g id="#fefce3ff">
<path fill="#fefce3" opacity="1.00" d=" M 243.92 118.37 L 244.68 118.33 C 247.50 118.29 250.33 118.35 253.16 118.37 C 253.36 123.78 253.34 129.20 253.30 134.61 C 250.91 135.39 248.52 136.18 246.10 136.84 C 245.63 136.97 244.69 137.21 244.21 137.34 C 243.92 131.02 243.96 124.69 243.92 118.37 Z" />
<path fill="#fefce3" opacity="1.00" d=" M 244.11 164.82 C 244.52 164.94 245.36 165.17 245.78 165.29 C 248.44 166.04 251.11 166.79 253.78 167.53 C 253.94 171.37 254.34 175.21 254.24 179.06 C 250.84 179.07 247.44 179.05 244.05 179.05 C 243.93 174.31 243.95 169.56 244.11 164.82 Z" />
</g>
<g id="#fefabfff">
<path fill="#fefabf" opacity="1.00" d=" M 231.98 124.44 C 233.00 123.99 234.01 123.53 235.03 123.07 C 234.87 128.66 234.81 134.24 234.87 139.83 C 233.69 140.28 232.52 140.73 231.35 141.19 C 230.39 141.41 229.43 141.50 228.45 141.47 C 225.67 141.46 222.89 141.40 220.11 141.42 C 220.14 137.66 220.17 133.90 220.27 130.14 C 224.20 128.30 228.02 126.23 231.98 124.44 Z" />
</g>
<g id="#eeeeedff">
<path fill="#eeeeed" opacity="1.00" d=" M 246.10 136.84 C 248.52 136.18 250.91 135.39 253.30 134.61 C 253.79 134.99 254.77 135.75 255.26 136.13 C 255.27 137.89 255.27 139.65 255.28 141.41 C 252.21 141.43 249.14 141.41 246.07 141.41 C 246.08 139.89 246.09 138.37 246.10 136.84 Z" />
</g>
<g id="#e3e2e1ff">
<path fill="#e3e2e1" opacity="1.00" d=" M 244.21 137.34 C 244.69 137.21 245.63 136.97 246.10 136.84 C 246.09 138.37 246.08 139.89 246.07 141.41 C 241.16 141.38 236.25 141.55 231.35 141.19 C 232.52 140.73 233.69 140.28 234.87 139.83 C 237.91 138.76 241.08 138.12 244.21 137.34 Z" />
</g>
<g id="#5b544fff">
<path fill="#5b544f" opacity="1.00" d=" M 101.01 156.23 C 105.67 155.97 110.35 155.77 115.02 156.14 C 115.04 159.98 115.14 163.82 115.31 167.66 C 110.62 168.98 105.96 170.41 101.25 171.65 C 100.57 166.53 100.61 161.36 101.01 156.23 Z" />
<path fill="#5b544f" opacity="1.00" d=" M 100.61 195.72 C 102.90 194.58 105.20 193.47 107.50 192.36 C 112.12 192.92 116.76 193.16 121.40 193.31 C 118.68 193.67 115.98 194.17 113.27 194.60 C 113.01 201.69 113.34 208.79 113.10 215.89 C 109.11 216.37 105.08 216.23 101.10 215.84 C 100.42 209.15 101.04 202.42 100.61 195.72 Z" />
</g>
<g id="#645d58ff">
<path fill="#645d58" opacity="1.00" d=" M 115.02 156.14 C 120.32 156.12 125.62 155.74 130.91 156.06 C 130.92 158.43 130.92 160.81 130.93 163.18 C 127.38 164.18 123.84 165.22 120.29 166.24 C 118.63 166.71 116.97 167.19 115.31 167.66 C 115.14 163.82 115.04 159.98 115.02 156.14 Z" />
<path fill="#645d58" opacity="1.00" d=" M 123.75 230.27 C 124.30 230.67 124.86 231.08 125.42 231.50 C 128.07 233.46 130.70 235.44 133.36 237.39 C 132.54 242.91 132.39 248.55 133.59 254.04 C 127.26 254.21 120.93 253.84 114.60 253.95 C 113.69 246.38 114.31 238.76 113.98 231.17 C 117.26 231.21 120.53 230.88 123.75 230.27 Z" />
</g>
<g id="#6e6863ff">
<path fill="#6e6863" opacity="1.00" d=" M 130.91 156.06 C 135.68 156.04 140.45 155.89 145.22 155.98 C 145.42 156.95 145.64 157.92 145.86 158.89 C 142.01 159.99 138.16 161.12 134.31 162.22 C 133.47 162.46 131.77 162.94 130.93 163.18 C 130.92 160.81 130.92 158.43 130.91 156.06 Z" />
</g>
<g id="#fcf044ff">
<path fill="#fcf044" opacity="1.00" d=" M 145.22 155.98 C 146.51 156.03 147.81 156.07 149.11 156.11 C 149.36 161.38 149.39 166.65 149.16 171.92 C 144.59 174.09 140.07 176.35 135.56 178.65 L 134.84 178.96 C 135.06 173.37 135.38 167.74 134.31 162.22 C 138.16 161.12 142.01 159.99 145.86 158.89 C 145.64 157.92 145.42 156.95 145.22 155.98 Z" />
</g>
<g id="#fdf695ff">
<path fill="#fdf695" opacity="1.00" d=" M 194.10 156.03 C 199.38 156.07 204.66 155.97 209.95 155.99 C 209.80 163.66 209.86 171.32 209.95 178.99 C 204.68 179.24 199.40 178.89 194.13 178.98 C 194.25 171.33 194.18 163.68 194.10 156.03 Z" />
</g>
<g id="#fdf8a7ff">
<path fill="#fdf8a7" opacity="1.00" d=" M 209.95 155.99 C 213.30 155.99 216.65 155.99 220.00 156.01 C 219.64 160.96 220.91 166.27 218.76 170.92 C 216.16 173.34 213.83 176.01 211.59 178.77 C 211.18 178.82 210.36 178.93 209.95 178.99 C 209.86 171.32 209.80 163.66 209.95 155.99 Z" />
</g>
<g id="#fef9b7ff">
<path fill="#fef9b7" opacity="1.00" d=" M 220.00 156.01 C 221.19 156.02 222.37 156.03 223.56 156.04 C 223.66 156.79 223.86 158.28 223.96 159.02 C 225.26 159.41 226.56 159.81 227.87 160.19 C 228.08 165.34 228.04 170.50 227.67 175.64 C 224.66 174.14 221.65 172.63 218.76 170.92 C 220.91 166.27 219.64 160.96 220.00 156.01 Z" />
</g>
<g id="#d3d1cfff">
<path fill="#d3d1cf" opacity="1.00" d=" M 223.56 156.04 L 224.23 156.05 C 228.58 156.05 232.93 155.95 237.28 156.00 C 236.92 158.18 236.56 160.35 236.20 162.53 L 235.06 162.21 C 232.67 161.53 230.26 160.88 227.87 160.19 C 226.56 159.81 225.26 159.41 223.96 159.02 C 223.86 158.28 223.66 156.79 223.56 156.04 Z" />
</g>
<g id="#e0dfdeff">
<path fill="#e0dfde" opacity="1.00" d=" M 237.28 156.00 C 240.16 156.00 243.04 155.99 245.93 155.99 C 245.88 159.09 245.83 162.19 245.78 165.29 C 245.36 165.17 244.52 164.94 244.11 164.82 C 241.46 164.07 238.83 163.29 236.20 162.53 C 236.56 160.35 236.92 158.18 237.28 156.00 Z" />
<path fill="#e0dfde" opacity="1.00" d=" M 236.93 193.26 C 239.64 193.26 242.35 193.26 245.06 193.26 C 245.18 200.95 245.07 208.64 245.07 216.33 C 244.47 216.34 243.26 216.34 242.66 216.34 L 242.14 216.35 C 240.23 213.74 238.32 211.12 236.32 208.58 C 237.35 203.54 237.27 198.37 236.93 193.26 Z" />
</g>
<g id="#edecebff">
<path fill="#edeceb" opacity="1.00" d=" M 245.93 155.99 C 248.69 155.98 251.45 155.98 254.21 156.02 C 254.55 159.86 254.24 163.71 253.78 167.53 C 251.11 166.79 248.44 166.04 245.78 165.29 C 245.83 162.19 245.88 159.09 245.93 155.99 Z" />
</g>
<g id="#fefac4ff">
<path fill="#fefac4" opacity="1.00" d=" M 227.87 160.19 C 230.26 160.88 232.67 161.53 235.06 162.21 C 235.13 167.84 235.14 173.49 234.83 179.12 L 234.23 179.05 C 232.01 177.98 229.86 176.75 227.67 175.64 C 228.04 170.50 228.08 165.34 227.87 160.19 Z" />
</g>
<g id="#fcef36ff">
<path fill="#fcef36" opacity="1.00" d=" M 120.29 166.24 C 123.84 165.22 127.38 164.18 130.93 163.18 C 131.77 162.94 133.47 162.46 134.31 162.22 C 135.38 167.74 135.06 173.37 134.84 178.96 C 134.54 179.08 133.95 179.34 133.65 179.47 C 129.43 179.19 125.21 178.82 120.98 178.93 C 121.20 174.69 121.03 170.43 120.29 166.24 Z" />
</g>
<g id="#fcee29ff">
<path fill="#fcee29" opacity="1.00" d=" M 115.31 167.66 C 116.97 167.19 118.63 166.71 120.29 166.24 C 121.03 170.43 121.20 174.69 120.98 178.93 C 114.10 179.08 107.21 179.10 100.34 178.70 C 99.98 176.58 99.64 174.46 99.29 172.35 L 99.25 172.16 C 99.75 172.03 100.75 171.78 101.25 171.65 C 105.96 170.41 110.62 168.98 115.31 167.66 Z" />
</g>
<g id="#78736eff">
<path fill="#78736e" opacity="1.00" d=" M 149.16 171.92 C 149.67 171.67 150.69 171.17 151.20 170.93 C 153.42 173.74 155.76 176.45 158.21 179.08 L 157.42 179.08 C 150.13 179.20 142.84 178.84 135.56 178.65 C 140.07 176.35 144.59 174.09 149.16 171.92 Z" />
<path fill="#78736e" opacity="1.00" d=" M 143.59 230.93 L 143.83 230.93 C 148.26 230.88 152.69 230.91 157.13 231.01 C 157.24 238.66 156.77 246.33 157.57 253.95 C 152.92 254.08 148.26 253.90 143.60 254.03 C 140.49 248.32 143.19 241.49 141.26 235.40 C 142.06 233.92 142.82 232.42 143.59 230.93 Z" />
</g>
<g id="#c5c3c1ff">
<path fill="#c5c3c1" opacity="1.00" d=" M 211.59 178.77 C 213.83 176.01 216.16 173.34 218.76 170.92 C 221.65 172.63 224.66 174.14 227.67 175.64 C 229.86 176.75 232.01 177.98 234.23 179.05 C 226.68 178.98 219.13 179.29 211.59 178.77 Z" />
</g>
<g id="#8d8784ff">
<path fill="#8d8784" opacity="1.00" d=" M 165.04 193.10 C 165.08 193.05 165.14 192.93 165.17 192.87 C 169.66 193.48 174.19 193.25 178.71 193.23 C 178.02 200.87 177.38 208.52 176.76 216.17 L 176.74 216.48 C 172.84 216.34 168.94 216.29 165.04 216.32 C 165.04 209.04 165.84 201.67 164.26 194.50 C 164.46 194.15 164.85 193.45 165.04 193.10 Z" />
</g>
<g id="#655f5aff">
<path fill="#655f5a" opacity="1.00" d=" M 121.40 193.31 C 129.56 193.16 137.72 192.71 145.88 193.12 C 144.10 195.22 142.36 197.34 140.62 199.48 C 136.19 204.87 131.76 210.27 127.34 215.68 C 127.13 215.93 126.71 216.44 126.51 216.69 C 122.05 216.18 117.57 216.06 113.10 215.89 C 113.34 208.79 113.01 201.69 113.27 194.60 C 115.98 194.17 118.68 193.67 121.40 193.31 Z" />
</g>
<g id="#fcf14dff">
<path fill="#fcf14d" opacity="1.00" d=" M 145.88 193.12 C 152.26 193.37 158.65 193.04 165.04 193.10 C 164.85 193.45 164.46 194.15 164.26 194.50 C 160.17 201.76 156.03 209.01 151.97 216.30 C 148.33 216.29 144.69 216.25 141.06 216.27 C 141.28 210.67 141.29 205.05 140.62 199.48 C 142.36 197.34 144.10 195.22 145.88 193.12 Z" />
</g>
<g id="#aaa7a3ff">
<path fill="#aaa7a3" opacity="1.00" d=" M 190.71 193.41 C 195.27 193.30 199.83 193.24 204.40 193.12 L 204.57 193.43 C 205.14 194.48 205.72 195.54 206.32 196.59 C 205.49 203.14 205.67 209.76 205.87 216.34 C 201.50 216.35 197.13 216.33 192.76 216.33 L 192.45 216.33 C 192.16 208.67 191.21 201.06 190.71 193.41 Z" />
</g>
<g id="#fdf8a9ff">
<path fill="#fdf8a9" opacity="1.00" d=" M 204.57 193.43 C 210.87 193.25 217.18 193.17 223.49 193.30 C 223.65 193.30 223.96 193.31 224.12 193.31 C 222.78 193.69 221.46 194.09 220.14 194.51 C 219.66 201.78 220.08 209.06 219.91 216.34 C 219.32 216.34 218.12 216.35 217.53 216.35 L 217.21 216.35 C 213.81 209.64 209.99 203.15 206.32 196.59 C 205.72 195.54 205.14 194.48 204.57 193.43 Z" />
</g>
<g id="#fef9b8ff">
<path fill="#fef9b8" opacity="1.00" d=" M 220.14 194.51 C 221.46 194.09 222.78 193.69 224.12 193.31 L 224.24 193.30 C 225.70 195.64 227.24 197.94 229.05 200.03 C 228.93 205.46 228.92 210.90 229.05 216.33 C 226.00 216.33 222.96 216.33 219.91 216.34 C 220.08 209.06 219.66 201.78 220.14 194.51 Z" />
</g>
<g id="#d5d4d2ff">
<path fill="#d5d4d2" opacity="1.00" d=" M 224.24 193.30 C 228.47 193.27 232.70 193.27 236.93 193.26 C 237.27 198.37 237.35 203.54 236.32 208.58 C 233.98 205.66 231.51 202.85 229.05 200.03 C 227.24 197.94 225.70 195.64 224.24 193.30 Z" />
</g>
<g id="#b7b4b2ff">
<path fill="#b7b4b2" opacity="1.00" d=" M 206.32 196.59 C 209.99 203.15 213.81 209.64 217.21 216.35 C 213.43 216.35 209.65 216.33 205.87 216.34 C 205.67 209.76 205.49 203.14 206.32 196.59 Z" />
</g>
<g id="#fefac6ff">
<path fill="#fefac6" opacity="1.00" d=" M 229.05 200.03 C 231.51 202.85 233.98 205.66 236.32 208.58 C 238.32 211.12 240.23 213.74 242.14 216.35 C 237.78 216.36 233.41 216.34 229.05 216.33 C 228.92 210.90 228.93 205.46 229.05 200.03 Z" />
</g>
<g id="#5b554fff">
<path fill="#5b554f" opacity="1.00" d=" M 103.02 231.23 C 106.66 230.87 110.34 230.73 113.98 231.17 C 114.31 238.76 113.69 246.38 114.60 253.95 C 110.83 254.20 107.05 254.07 103.30 253.64 C 102.28 246.23 102.70 238.68 103.02 231.23 Z" />
</g>
<g id="#fcf03fff">
<path fill="#fcf03f" opacity="1.00" d=" M 125.42 231.50 C 131.46 230.94 137.53 230.87 143.59 230.93 C 142.82 232.42 142.06 233.92 141.26 235.40 C 140.24 237.23 139.18 239.05 138.13 240.87 C 136.54 239.70 134.94 238.55 133.36 237.39 C 130.70 235.44 128.07 233.46 125.42 231.50 Z" />
</g>
<g id="#87827eff">
<path fill="#87827e" opacity="1.00" d=" M 157.13 231.01 C 163.25 231.05 169.37 230.74 175.49 231.05 C 174.87 237.44 174.46 243.85 173.75 250.24 C 175.73 250.36 177.72 250.44 179.71 250.46 C 180.09 251.63 180.48 252.80 180.86 253.98 C 173.10 254.10 165.33 253.90 157.57 253.95 C 156.77 246.33 157.24 238.66 157.13 231.01 Z" />
</g>
<g id="#adaaa7ff">
<path fill="#adaaa7" opacity="1.00" d=" M 193.89 230.92 C 198.32 230.88 202.74 230.93 207.17 230.97 C 207.46 236.99 207.24 243.01 207.25 249.03 C 207.16 250.81 207.92 252.43 208.58 254.03 C 203.35 254.01 198.13 253.91 192.90 253.95 C 192.61 252.76 192.32 251.57 192.03 250.39 C 193.18 250.36 194.32 250.34 195.47 250.33 C 195.02 243.85 194.35 237.39 193.89 230.92 Z" />
</g>
<g id="#bfbdbbff">
<path fill="#bfbdbb" opacity="1.00" d=" M 207.17 230.97 C 213.30 230.94 219.43 231.00 225.55 230.76 C 224.11 236.76 224.63 242.98 224.66 249.09 C 224.48 251.00 225.62 252.56 226.63 254.06 C 220.61 254.00 214.59 253.88 208.58 254.03 C 207.92 252.43 207.16 250.81 207.25 249.03 C 207.24 243.01 207.46 236.99 207.17 230.97 Z" />
</g>
<g id="#cfcdccff">
<path fill="#cfcdcc" opacity="1.00" d=" M 225.55 230.76 L 225.75 231.11 C 227.59 234.45 229.60 237.68 231.47 241.01 C 232.39 245.32 231.19 250.11 233.59 254.04 C 231.27 253.99 228.94 253.99 226.63 254.06 C 225.62 252.56 224.48 251.00 224.66 249.09 C 224.63 242.98 224.11 236.76 225.55 230.76 Z" />
</g>
<g id="#6f6964ff">
<path fill="#6f6964" opacity="1.00" d=" M 141.26 235.40 C 143.19 241.49 140.49 248.32 143.60 254.03 C 140.26 253.99 136.93 254.01 133.59 254.04 C 132.39 248.55 132.54 242.91 133.36 237.39 C 134.94 238.55 136.54 239.70 138.13 240.87 C 139.18 239.05 140.24 237.23 141.26 235.40 Z" />
</g>
<g id="#9d9995ff">
<path fill="#9d9995" opacity="1.00" d=" M 179.71 250.46 C 183.82 250.41 187.93 250.40 192.03 250.39 C 192.32 251.57 192.61 252.76 192.90 253.95 C 188.89 254.03 184.87 253.94 180.86 253.98 C 180.48 252.80 180.09 251.63 179.71 250.46 Z" />
</g>
<g id="#423d37ff">
</g>
<g id="#413b35ff">
</g>
<g id="#403a37ff">
</g>
<g id="#403c37ff">
</g>
<g id="#423d3aff">
</g>
<g id="#423c37ff">
</g>
<g id="#423c34ff">
</g>
<g id="#433d37ff">
</g>
<g id="#403b38ff">
</g>
<g id="#433b35ff">
</g>
<g id="#403b34ff">
</g>
<g id="#423d38ff">
</g>
<g id="#413b37ff">
</g>
<g id="#faec17ff">
<path fill="#faec17" opacity="1.00" d=" M 88.03 300.67 C 94.54 298.92 101.36 299.39 108.02 299.45 C 111.79 299.71 115.93 299.66 119.24 301.75 C 121.86 304.35 121.45 308.35 121.80 311.73 C 118.65 311.71 115.50 311.70 112.36 311.72 C 112.02 310.67 111.69 309.62 111.37 308.57 C 105.61 306.78 99.31 307.13 93.46 308.31 C 92.06 313.15 91.70 318.67 93.71 323.39 C 99.48 323.89 105.31 324.02 111.07 323.28 C 111.56 322.01 112.05 320.75 112.54 319.50 C 115.61 319.54 118.69 319.54 121.76 319.52 C 121.38 323.12 122.15 328.26 118.29 330.20 C 113.45 332.09 108.11 331.67 103.01 331.83 C 97.80 331.72 92.42 332.11 87.40 330.47 C 84.29 329.46 83.59 325.87 83.31 323.03 C 82.30 317.20 82.65 311.24 83.76 305.46 C 84.17 303.22 85.75 301.18 88.03 300.67 M 95.73 324.48 C 100.18 325.27 104.80 325.40 109.25 324.48 C 104.77 323.78 100.20 323.79 95.73 324.48 Z" />
<path fill="#faec17" opacity="1.00" d=" M 375.08 301.99 C 377.21 300.13 380.24 299.94 382.93 299.63 C 390.41 299.22 397.94 299.17 405.41 299.82 L 405.55 299.85 C 407.65 300.78 410.09 301.80 410.96 304.13 C 412.30 308.14 411.77 312.81 408.55 315.77 C 412.18 317.94 411.88 322.42 411.26 326.06 C 410.56 329.13 407.59 331.02 404.60 331.30 C 395.49 332.22 386.13 332.64 377.14 330.65 C 372.69 328.94 373.14 323.29 372.62 319.39 C 375.80 319.35 378.97 319.34 382.15 319.34 C 382.67 320.72 383.19 322.10 383.73 323.48 C 389.65 323.79 395.60 323.92 401.54 323.56 C 401.59 322.24 401.65 320.91 401.71 319.59 C 397.00 318.60 392.18 318.65 387.40 318.78 C 387.40 316.63 387.41 314.48 387.42 312.34 C 392.23 312.37 397.11 312.72 401.85 311.62 C 401.71 310.31 401.58 309.01 401.44 307.71 C 395.22 307.48 388.83 306.76 382.77 308.54 C 382.68 309.34 382.49 310.93 382.40 311.73 C 379.12 311.71 375.85 311.70 372.57 311.65 C 373.16 308.41 372.92 304.69 375.08 301.99 M 384.73 324.56 C 390.20 325.23 395.80 325.45 401.25 324.49 C 395.78 323.67 390.20 323.85 384.73 324.56 Z" />
<path fill="#faec17" opacity="1.00" d=" M 432.98 299.73 C 438.49 299.69 443.99 299.74 449.49 299.66 C 452.15 304.53 454.50 309.56 456.97 314.53 C 459.61 320.23 462.77 325.69 465.11 331.53 C 461.48 331.47 457.86 331.52 454.23 331.53 C 453.20 329.79 452.20 328.04 451.18 326.31 C 444.52 326.32 437.87 326.17 431.21 326.42 C 430.35 328.13 429.43 329.80 428.56 331.51 C 424.77 331.51 420.98 331.51 417.19 331.50 C 422.58 320.97 427.81 310.36 432.98 299.73 M 435.16 318.27 C 439.16 318.32 443.17 318.31 447.18 318.27 C 445.50 314.07 444.27 309.32 440.95 306.10 C 438.84 310.07 436.84 314.10 435.16 318.27 Z" />
<path fill="#faec17" opacity="1.00" d=" M 817.05 300.39 C 825.10 298.69 833.41 299.48 841.56 299.69 L 842.60 299.79 C 844.53 300.55 846.92 300.93 848.22 302.73 C 849.83 305.41 849.58 308.68 849.90 311.68 C 846.77 311.70 843.65 311.71 840.54 311.74 C 840.11 310.63 839.70 309.51 839.31 308.40 C 833.56 307.35 827.16 306.44 821.64 308.65 C 819.61 313.25 820.36 318.66 821.59 323.40 C 827.41 323.88 833.27 323.98 839.09 323.32 C 839.58 322.05 840.08 320.77 840.59 319.51 C 843.66 319.53 846.73 319.53 849.81 319.52 C 849.52 323.18 850.17 328.13 846.40 330.25 C 841.17 332.14 835.48 331.69 830.02 331.83 C 824.93 331.67 819.57 332.15 814.78 330.14 C 811.53 328.38 811.44 324.16 811.25 320.93 C 811.23 315.64 810.80 310.26 811.90 305.06 C 812.41 302.55 814.57 300.76 817.05 300.39 M 823.65 324.47 C 828.12 325.33 832.72 325.35 837.22 324.64 C 832.77 323.53 828.14 323.91 823.65 324.47 Z" />
<path fill="#faec17" opacity="1.00" d=" M 914.14 300.81 C 920.93 298.99 928.02 299.32 934.98 299.44 C 938.54 299.64 942.31 299.75 945.55 301.42 C 948.77 303.72 948.29 308.23 948.74 311.70 C 945.57 311.70 942.41 311.71 939.25 311.73 C 938.90 310.64 938.56 309.56 938.24 308.48 C 932.51 307.20 926.08 306.55 920.51 308.59 C 918.44 313.10 919.08 318.78 920.56 323.47 C 925.72 323.69 930.92 324.11 936.08 323.49 C 938.29 323.55 938.64 320.95 939.67 319.53 C 942.68 319.51 945.70 319.52 948.73 319.53 C 948.42 322.47 948.52 325.58 947.21 328.30 C 945.77 330.81 942.51 331.04 939.97 331.45 C 933.00 332.00 925.98 332.00 919.02 331.48 C 915.98 331.12 911.86 330.52 911.00 326.98 C 909.04 320.17 909.18 312.85 910.49 305.93 C 910.74 304.00 911.94 302.42 913.33 301.12 C 913.53 301.04 913.94 300.89 914.14 300.81 M 921.92 324.50 C 926.65 325.32 931.51 325.34 936.25 324.52 C 931.50 323.75 926.66 323.78 921.92 324.50 Z" />
<path fill="#faec17" opacity="1.00" d=" M 1105.50 331.52 C 1105.57 320.91 1105.51 310.30 1105.53 299.70 C 1108.48 299.71 1111.45 299.59 1114.42 299.74 C 1116.29 301.74 1114.85 305.09 1115.24 307.64 C 1122.50 307.92 1129.88 306.91 1137.06 308.37 C 1140.57 308.93 1142.56 312.63 1142.65 315.93 C 1142.76 319.99 1143.35 324.48 1141.16 328.13 C 1139.16 331.04 1135.26 331.31 1132.05 331.47 C 1123.20 331.58 1114.35 331.47 1105.50 331.52 M 1115.30 323.55 C 1120.19 323.42 1125.08 323.64 1129.98 323.46 C 1131.59 323.73 1132.55 322.34 1133.53 321.34 C 1133.27 319.32 1133.49 316.61 1131.20 315.69 C 1125.91 315.34 1120.60 315.69 1115.32 315.52 C 1115.22 318.20 1115.21 320.87 1115.30 323.55 Z" />
</g>
<g id="#faec16ff">
<path fill="#faec16" opacity="1.00" d=" M 138.96 299.82 C 146.94 299.14 155.02 299.12 162.99 299.95 C 164.98 300.33 166.91 300.99 168.86 301.57 C 171.70 306.93 171.58 313.14 171.40 319.03 C 171.24 322.00 170.98 325.06 169.82 327.84 C 168.70 330.46 165.52 330.89 163.04 331.31 C 156.07 332.08 149.04 331.81 142.04 331.75 C 138.56 331.55 134.52 331.75 131.83 329.14 C 129.35 326.80 129.64 323.09 129.44 319.97 C 129.48 314.59 128.99 309.00 130.80 303.83 C 131.89 300.46 136.08 300.40 138.96 299.82 M 139.67 308.69 C 139.60 309.35 139.47 310.66 139.41 311.32 L 138.15 311.15 C 137.96 314.48 137.92 317.84 138.37 321.15 L 139.23 320.18 C 139.31 324.34 144.11 323.58 146.98 323.75 C 151.76 323.51 156.96 324.62 161.36 322.27 C 161.70 318.05 162.09 313.75 161.31 309.55 C 160.06 307.36 157.16 307.71 155.01 307.50 C 149.89 307.50 144.58 306.91 139.67 308.69 M 141.73 324.51 C 147.18 325.38 152.78 325.34 158.25 324.58 C 152.79 323.64 147.20 323.81 141.73 324.51 Z" />
<path fill="#faec16" opacity="1.00" d=" M 1045.31 299.67 C 1051.00 299.72 1056.70 299.75 1062.40 299.66 C 1065.02 305.03 1067.95 310.33 1069.95 315.97 C 1070.64 318.06 1070.44 320.82 1072.63 322.09 C 1072.73 321.27 1072.95 319.64 1073.06 318.82 C 1073.17 316.29 1074.46 314.07 1075.52 311.85 C 1077.54 307.78 1079.20 303.54 1081.47 299.60 C 1086.84 299.80 1092.22 299.72 1097.60 299.66 C 1097.76 310.29 1097.65 320.92 1097.66 331.55 C 1094.52 331.50 1091.39 331.51 1088.26 331.55 C 1088.19 323.00 1088.11 314.45 1088.38 305.91 C 1083.85 314.21 1080.07 322.90 1076.02 331.45 C 1073.31 331.51 1070.60 331.52 1067.91 331.50 C 1063.95 323.88 1060.14 316.19 1056.10 308.61 C 1055.72 307.92 1054.94 306.55 1054.56 305.86 C 1054.84 314.33 1054.59 322.80 1054.80 331.27 L 1054.81 331.53 C 1051.62 331.52 1048.44 331.51 1045.27 331.53 C 1045.31 320.91 1045.23 310.29 1045.31 299.67 Z" />
<path fill="#faec16" opacity="1.00" d=" M 279.56 299.68 C 282.67 300.21 286.75 298.51 289.24 300.63 C 289.39 308.27 289.11 315.91 289.35 323.56 C 296.06 323.42 302.77 323.53 309.49 323.50 C 309.52 315.56 309.48 307.62 309.49 299.69 C 312.61 300.22 316.66 298.54 319.23 300.58 C 319.34 308.21 319.22 315.84 319.25 323.47 C 320.04 323.49 321.63 323.52 322.42 323.54 C 322.36 327.89 322.36 332.24 322.43 336.59 C 319.16 336.62 315.89 336.62 312.62 336.61 C 312.51 334.94 312.45 333.28 312.34 331.62 C 301.40 331.40 290.47 331.56 279.53 331.53 C 279.59 320.92 279.53 310.30 279.56 299.68 Z" />
</g>
<g id="#faed17ff">
<path fill="#faed17" opacity="1.00" d=" M 182.55 299.69 C 194.85 299.72 207.15 299.74 219.45 299.68 C 219.47 310.30 219.44 320.92 219.47 331.54 C 216.23 331.52 212.99 331.51 209.75 331.47 C 209.74 323.54 209.96 315.61 209.64 307.69 C 203.90 307.79 198.15 307.78 192.42 307.70 C 191.88 314.28 192.21 321.24 189.60 327.42 C 187.46 332.02 181.96 331.78 177.70 331.43 C 177.73 328.90 177.75 326.38 177.77 323.86 C 178.99 323.33 180.21 322.82 181.43 322.31 C 183.27 314.92 182.24 307.22 182.55 299.69 Z" />
<path fill="#faed17" opacity="1.00" d=" M 228.61 299.69 C 231.86 299.70 235.10 299.70 238.36 299.70 C 238.29 303.56 238.25 307.43 238.49 311.29 C 245.50 311.18 252.52 311.20 259.53 311.28 C 259.74 307.41 259.71 303.54 259.66 299.68 C 262.91 299.70 266.16 299.70 269.42 299.69 C 269.42 310.30 269.35 320.91 269.45 331.52 C 266.18 331.52 262.90 331.52 259.63 331.50 C 259.69 327.40 259.70 323.31 259.68 319.22 C 252.56 319.23 245.44 319.21 238.31 319.23 C 238.30 323.32 238.31 327.41 238.37 331.50 C 235.11 331.51 231.85 331.52 228.59 331.51 C 228.65 320.90 228.62 310.30 228.61 299.69 Z" />
<path fill="#faed17" opacity="1.00" d=" M 473.03 331.56 C 473.19 320.91 472.21 310.22 473.24 299.60 C 476.33 299.67 479.43 299.70 482.53 299.70 C 482.55 307.62 482.54 315.55 482.54 323.48 C 487.11 323.51 491.69 323.52 496.27 323.44 C 495.67 315.51 496.15 307.56 496.18 299.62 C 499.30 299.68 502.43 299.70 505.56 299.69 C 505.59 307.62 505.57 315.54 505.57 323.47 C 510.12 323.51 514.67 323.51 519.22 323.45 C 519.22 315.53 519.19 307.61 519.25 299.69 C 522.37 299.70 525.49 299.69 528.62 299.66 C 528.72 307.64 528.64 315.63 528.67 323.61 C 529.42 323.51 530.92 323.31 531.67 323.21 C 531.69 323.81 531.71 324.99 531.73 325.58 C 531.77 327.91 531.75 330.24 531.81 332.57 C 531.78 333.98 531.73 335.39 531.68 336.81 C 528.63 336.57 525.58 336.59 522.53 336.61 C 522.14 334.91 521.82 333.19 521.61 331.47 C 505.42 331.62 489.23 331.42 473.03 331.56 Z" />
<path fill="#faed17" opacity="1.00" d=" M 745.80 331.41 C 746.10 320.81 745.28 310.17 746.26 299.60 C 757.60 299.84 768.95 299.66 780.30 299.70 C 780.29 302.25 780.29 304.80 780.30 307.35 C 772.02 307.37 763.74 307.31 755.47 307.38 C 755.49 308.85 755.52 310.33 755.56 311.81 C 763.27 311.89 770.99 312.08 778.69 311.66 C 778.82 314.26 778.85 316.87 778.85 319.49 C 771.08 319.43 763.31 319.48 755.54 319.45 C 755.53 320.53 755.52 322.70 755.51 323.78 C 763.42 323.66 771.36 324.12 779.26 323.56 C 780.54 326.00 780.26 328.79 780.28 331.45 C 768.78 331.45 757.29 331.55 745.80 331.41 Z" />
<path fill="#faed17" opacity="1.00" d=" M 1148.59 299.68 C 1151.81 299.70 1155.04 299.71 1158.27 299.70 C 1158.27 310.30 1158.21 320.89 1158.30 331.49 C 1155.05 331.51 1151.80 331.52 1148.57 331.53 C 1148.62 320.91 1148.59 310.30 1148.59 299.68 Z" />
</g>
<g id="#faed16ff">
<path fill="#faed16" opacity="1.00" d=" M 329.59 299.69 C 340.94 299.69 352.29 299.75 363.64 299.65 C 363.68 302.24 363.68 304.83 363.65 307.42 C 355.50 307.29 347.34 307.39 339.20 307.35 C 339.46 308.89 338.74 310.90 339.88 312.12 C 347.39 311.55 354.93 311.96 362.46 311.72 C 362.58 314.30 362.63 316.89 362.61 319.47 C 354.81 319.40 347.01 319.47 339.21 319.43 C 339.29 321.05 339.35 322.68 339.44 324.31 C 347.53 324.19 355.63 324.27 363.72 324.25 C 363.69 326.69 363.68 329.13 363.66 331.58 C 352.30 331.43 340.93 331.56 329.57 331.51 C 329.61 320.90 329.59 310.30 329.59 299.69 Z" />
<path fill="#faed16" opacity="1.00" d=" M 637.60 299.71 C 640.85 299.71 644.10 299.71 647.36 299.70 C 647.33 303.55 647.30 307.41 647.47 311.27 C 654.50 311.21 661.52 311.20 668.54 311.29 C 668.81 307.70 668.61 304.10 668.71 300.50 C 671.38 298.66 675.28 300.17 678.42 299.71 C 678.41 310.31 678.38 320.91 678.44 331.51 C 675.18 331.52 671.93 331.52 668.68 331.49 C 668.70 327.40 668.71 323.31 668.72 319.22 C 661.59 319.21 654.45 319.23 647.32 319.22 C 647.35 323.32 647.35 327.41 647.39 331.51 C 644.12 331.51 640.85 331.51 637.59 331.51 C 637.64 320.91 637.60 310.31 637.60 299.71 Z" />
<path fill="#faed16" opacity="1.00" d=" M 686.57 299.68 C 689.81 299.71 693.05 299.71 696.30 299.71 C 696.30 302.34 696.30 304.99 696.29 307.63 C 703.49 307.91 710.80 306.94 717.92 308.32 C 721.60 308.82 723.61 312.64 723.69 316.05 C 723.82 319.92 724.25 324.07 722.51 327.66 C 720.67 331.01 716.36 331.31 712.97 331.47 C 704.16 331.57 695.35 331.48 686.54 331.52 C 686.62 320.91 686.56 310.30 686.57 299.68 M 696.28 323.50 C 701.21 323.45 706.14 323.61 711.07 323.47 C 715.64 323.85 715.61 315.31 711.05 315.60 C 706.15 315.46 701.26 315.64 696.37 315.52 C 696.29 318.18 696.27 320.84 696.28 323.50 Z" />
</g>
<g id="#fbed16ff">
<path fill="#fbed16" opacity="1.00" d=" M 538.57 299.70 C 541.81 299.70 545.05 299.71 548.30 299.71 C 548.04 308.25 548.93 316.87 547.41 325.33 C 553.51 317.04 559.20 308.45 565.38 300.21 L 565.77 299.70 C 570.99 299.79 576.21 299.78 581.42 299.71 C 581.43 300.09 581.45 300.86 581.46 301.25 C 581.59 311.34 581.46 321.43 581.51 331.52 C 578.33 331.51 575.16 331.52 571.99 331.54 C 571.90 322.96 571.17 314.27 572.73 305.78 C 566.75 314.45 560.58 322.99 554.44 331.56 C 549.14 331.49 543.85 331.52 538.56 331.52 C 538.58 320.91 538.58 310.30 538.57 299.70 Z" />
<path fill="#fbed16" opacity="1.00" d=" M 1002.48 299.66 C 1013.83 299.75 1025.18 299.71 1036.54 299.68 C 1036.53 302.24 1036.53 304.81 1036.54 307.38 C 1028.27 307.41 1020.00 307.19 1011.73 307.49 C 1011.72 308.50 1011.69 310.53 1011.67 311.54 C 1019.47 312.58 1027.51 311.60 1035.41 311.77 C 1035.42 314.33 1035.43 316.89 1035.44 319.46 C 1027.98 319.48 1020.52 319.34 1013.06 319.48 C 1010.59 319.42 1011.26 324.86 1013.89 324.25 C 1021.46 324.31 1029.03 324.18 1036.60 324.28 C 1036.55 326.70 1036.54 329.11 1036.54 331.54 C 1025.17 331.49 1013.80 331.50 1002.44 331.53 C 1002.48 320.91 1002.41 310.29 1002.48 299.66 Z" />
</g>
<g id="#40393bff">
</g>
<g id="#fbed15ff">
<path fill="#fbed15" opacity="1.00" d=" M 592.19 299.84 C 604.64 299.60 617.09 299.89 629.55 299.69 C 629.67 301.99 629.82 304.28 629.81 306.59 C 629.77 306.89 629.69 307.49 629.65 307.79 C 625.00 307.75 620.35 307.75 615.71 307.76 C 615.68 315.69 615.69 323.61 615.70 331.54 C 612.55 331.52 609.40 331.52 606.26 331.55 C 606.25 323.62 606.27 315.69 606.25 307.77 C 601.57 307.73 596.89 307.75 592.21 307.77 C 592.22 305.13 592.22 302.48 592.19 299.84 Z" />
</g>
<g id="#faec15ff">
<path fill="#faec15" opacity="1.00" d=" M 729.58 299.70 C 732.71 300.17 736.67 298.62 739.27 300.56 C 739.35 310.87 739.21 321.18 739.32 331.49 C 736.06 331.51 732.80 331.52 729.55 331.52 C 729.63 320.91 729.56 310.31 729.58 299.70 Z" />
</g>
<g id="#faec18ff">
<path fill="#faec18" opacity="1.00" d=" M 857.66 299.70 C 860.89 299.70 864.13 299.69 867.38 299.69 C 866.92 308.16 868.39 316.83 866.39 325.14 C 873.01 317.03 878.53 308.03 884.86 299.68 C 890.15 299.73 895.45 299.71 900.74 299.68 L 900.70 300.81 C 900.58 310.96 900.58 321.13 900.72 331.29 L 900.73 331.53 C 897.56 331.51 894.40 331.52 891.24 331.55 C 891.40 322.98 890.74 314.37 891.73 305.85 C 885.93 314.53 879.82 323.03 873.59 331.40 C 868.29 331.72 862.96 331.43 857.65 331.49 C 857.71 320.89 857.70 310.29 857.66 299.70 Z" />
</g>
<g id="#4a4021ff">
</g>
<g id="#423b37ff">
</g>
<g id="#3f3939ff">
</g>
<g id="#53471aff">
</g>
<g id="#e9dc44ff">
<path fill="#e9dc44" opacity="1.00" d=" M 138.15 311.15 L 139.41 311.32 C 139.17 314.26 139.23 317.22 139.23 320.18 L 138.37 321.15 C 137.92 317.84 137.96 314.48 138.15 311.15 Z" />
</g>
<g id="#504843ff">
</g>
<g id="#443d36ff">
</g>
<g id="#ac9e31ff">
</g>
<g id="#453f37ff">
</g>
<g id="#393840ff">
</g>
<g id="#e3d43dff">
<path fill="#e3d43d" opacity="1.00" d=" M 95.73 324.48 C 100.20 323.79 104.77 323.78 109.25 324.48 C 104.80 325.40 100.18 325.27 95.73 324.48 Z" />
</g>
<g id="#e4d63dff">
<path fill="#e4d63d" opacity="1.00" d=" M 141.73 324.51 C 147.20 323.81 152.79 323.64 158.25 324.58 C 152.78 325.34 147.18 325.38 141.73 324.51 Z" />
</g>
<g id="#e5d53dff">
<path fill="#e5d53d" opacity="1.00" d=" M 384.73 324.56 C 390.20 323.85 395.78 323.67 401.25 324.49 C 395.80 325.45 390.20 325.23 384.73 324.56 Z" />
</g>
<g id="#e4d43dff">
<path fill="#e4d43d" opacity="1.00" d=" M 823.65 324.47 C 828.14 323.91 832.77 323.53 837.22 324.64 C 832.72 325.35 828.12 325.33 823.65 324.47 Z" />
</g>
<g id="#e5d63cff">
<path fill="#e5d63c" opacity="1.00" d=" M 921.92 324.50 C 926.66 323.78 931.50 323.75 936.25 324.52 C 931.51 325.34 926.65 325.32 921.92 324.50 Z" />
</g>
<g id="#5c531aff">
</g>
<g id="#5f5419ff">
</g>
<g id="#5e5518ff">
</g>
<g id="#5d5416ff">
</g>
</svg>
