<svg width="0" height="0" class="hidden">
  <symbol xmlns="http://www.w3.org/2000/svg" viewBox="0 0 512 480" id="feedback">
    <path d="M24.9 4.8C31.4 1.5 38.7-.1 46 0h420c10.5-.2 21 3.3 29.1 9.9 10.1 8 16.4 20.6 16.9 33.5v303.2c-.5 18-12.8 34.8-29.8 40.8-7.4 2.8-15.4 2.8-23.1 2.6H202.3l-85.1 85.1c-3.8 4.1-10 5.9-15.4 4.2-6.2-1.8-10.8-7.8-10.7-14.2-.1-25 0-50.1 0-75.1h-46c-12.3 0-24.5-5.3-32.8-14.3C4.8 367.9.5 357.4 0 346.6V43.4C.5 27.3 10.4 11.9 24.9 4.8M30 45v300.1c-.2 8.4 7.6 15.5 15.9 15H106c7.9-.1 15 7 14.9 14.9v53.8l63.9-63.9c3.1-3.3 7.6-5.1 12.1-4.9h270c8 .1 15-7 14.9-14.9V45c.1-8-7-15.1-15-14.9H44.7C37 29.9 29.9 37 30 45z"></path>
    <path d="M242.5 83.5c2.4-5.1 7.9-8.5 13.6-8.4 5.6-.1 11 3.4 13.4 8.4 9.6 19 19.2 38.1 28.9 57.1 21.5 2.9 43 6 64.5 9.1 5.6.7 10.6 4.8 12.3 10.1 1.9 5.4.3 11.7-3.9 15.6-15.5 14.9-31.1 29.6-46.7 44.5 3.5 20.1 7.1 40.3 10.6 60.4.7 3.2.9 6.7-.3 9.8-2 5.8-7.9 10-14 10-4.3.2-8.1-2.3-11.8-4.1-17.7-9.1-35.4-18.3-53.2-27.3-19.2 9.9-38.5 19.8-57.7 29.6-5.9 3.3-13.9 1.9-18.3-3.2-3.1-3.4-4.5-8.4-3.6-12.9 3.6-20.8 7.3-41.5 10.9-62.3-15.7-15-31.5-29.9-47.2-45-5.9-5.8-5.3-16.4 1.1-21.6 3.5-3.3 8.4-3.7 12.8-4.2 19.9-2.8 39.7-5.6 59.6-8.4 9.8-19.2 19.4-38.2 29-57.2m-5.6 77.5c-2 3.9-5.7 6.9-10 7.8-14.3 2.3-28.7 3.9-42.9 6.4l29.7 28.2c3.7 3.4 5.5 8.6 4.7 13.5-2.3 13.7-4.8 27.3-7.2 41 12.8-6.4 25.4-13.1 38.2-19.6 4.6-2.4 10.3-1.9 14.7.6l36.9 18.9c-2.4-13.6-4.8-27.3-7.2-40.9-.9-4.9 1-10.2 4.6-13.5 9.9-9.5 19.9-18.9 29.8-28.4-14.1-2.1-28.2-3.9-42.2-6-5.8-.8-10.2-5.4-12.3-10.7-5.9-11.6-11.7-23.3-17.7-34.9-6.5 12.5-12.7 25.1-19.1 37.6z"></path>
  </symbol>
  <symbol xmlns="http://www.w3.org/2000/svg" viewBox="0 0 511 512" id="file">
    <path d="M26.9 0h270.3c2.4.6 4.6 1.6 6.3 3.4 32.3 32.3 64.7 64.6 97 97 2.4 2.2 3.6 5.3 3.4 8.5v111.2c19.1 20.1 31.8 46.3 35 73.8 3.5 27.8-2.4 56.5-16.3 80.8 26.3 26.2 52.5 52.5 78.8 78.8 4.6 4.4 7.8 10.1 9.5 16.2v16.6c-3.3 13.8-15.8 24.3-29.9 25.7h-6c-4.8-.8-9.6-2-13.8-4.5-4.8-2.6-8.5-6.7-12.3-10.5-15-15-30-30-45.1-45-.1 10.7.2 21.4-.1 32.1-.7 14.5-13.1 26.8-27.5 27.9h-349c-4.9-.8-9.9-2.3-14-5.2C4.7 501.2-.3 491.1 0 481V31c-.3-8.9 3.6-17.9 10.4-23.6C15 3.3 20.9 1 26.9 0m-5.3 24.6C19.5 27.7 20 31.5 20 35v446c-.6 6 4.9 11.6 10.9 11H373c5.6.5 11.1-4.2 10.9-9.9.1-16.7 0-33.4 0-50.1l-9.2-9.2c-15.9 9-33.7 14.9-51.9 16.6-27 2.8-54.9-3.2-78.3-17.1-21-12.3-38.5-30.7-49.8-52.3-42.6.4-85.1 0-127.7.2-2.9 0-6.1 0-8.5-1.8-3.9-2.6-5.5-8-3.5-12.3 1.6-3.9 5.8-6.2 9.9-6h121.4c-6.8-20.9-8.1-43.6-3.9-65.2 5.4-27.7 20.2-53.5 41.4-72.1 22.4-20.1 52-31.9 82.2-32.7 27.6-1 55.4 7.3 78 23.1v-85.1c-23-.1-46 .1-69-.1-15.2-.2-28.8-13.7-28.9-28.9-.1-23 0-46-.1-69H31c-3.6-.3-7.4 1.3-9.4 4.5M306 34.2v52.9c-.7 6.5 5.6 11.9 12 11h51.9c-21.3-21.4-42.6-42.7-63.9-63.9m-8.5 166.5c-30.9 3.4-59.9 20.7-77.6 46.2-15.9 22.4-22.7 50.9-18.9 78.1 3.9 29.5 20.6 56.9 44.8 74.1 19.6 14.2 44 21.7 68.3 20.7 21.5-.7 42.7-8 60.1-20.7 18.1-13 32-31.5 39.4-52.5 8-22.3 8.4-47.3 1.2-69.9-7.8-24.7-24.6-46.4-46.6-60.1-20.8-13-46.2-18.7-70.7-15.9m113.7 190.8c-5.9 7.2-12.4 13.8-19.6 19.6 24.9 24.9 49.8 49.7 74.6 74.6 2 2 4.1 4.2 6.9 5.2 5.4 2.2 12.1.4 15.8-4.2 4.5-5.3 4-13.9-1-18.7-25.6-25.4-51.1-51-76.7-76.5z"></path>
    <path d="M61.2 73.3c1.6-.5 3.2-.4 4.8-.5 63.3.1 126.6 0 189.9.1 5.8-.3 10.9 5.5 10 11.2-.5 5.3-5.7 9.2-10.9 8.7H65c-5.1.4-10.2-3.5-10.7-8.7-.8-4.7 2.4-9.5 6.9-10.8zm.2 69.3c7.2-2.5 14.9 5.2 12.3 12.4-1.8 7.1-11.9 9.6-16.7 4.1-5.3-5-2.7-14.8 4.4-16.5zm42 0c1.8-.6 3.7-.5 5.6-.5 49 .1 98 0 147.1.1 5.3-.1 9.9 4.5 9.9 9.7.3 5.4-4.5 10.3-10 10.2-49.7.1-99.4 0-149 0-4.8.2-9.4-3.4-10.2-8.1-1.1-4.8 2-9.9 6.6-11.4zm-41 69c32.2-.4 64.4 0 96.6-.2 5.1-.5 10.3 3.2 11 8.4 1.1 5.8-4 11.8-9.9 11.6-32 0-64 .1-96 0-5.1.1-9.6-4.3-9.8-9.4-.5-4.8 3.2-9.6 8.1-10.4zm237.1 11c17.1-2.1 34.8 1 50.2 8.8 19.8 10 35.6 27.7 43.1 48.6 6.9 18.8 7 40 .3 58.9-6 17.2-17.4 32.3-32.3 42.8-15.8 11.3-35.4 17-54.8 16.1-18.6-.8-36.9-7.8-51.4-19.6-16.7-13.4-28.2-33.1-31.5-54.3-3.4-20.8 1-42.8 12.2-60.6 13.9-22.2 38.1-37.7 64.2-40.7m.1 20.2c-21.1 3.1-40.2 16.9-50 35.9-8 15.2-9.8 33.5-5.1 50 7.1 25.8 30.7 46 57.3 48.9 16.6 2 33.9-2.4 47.5-12.2 13.7-9.7 23.6-24.7 27.1-41.2 3.2-15 1.2-31.1-5.8-44.8-7.3-14.4-19.8-26.1-34.8-32.2-11.3-4.8-24-6.3-36.2-4.4z"></path>
    <path d="M306.5 265.7c6.7-1.6 13.9.3 20.2 2.6 17 6.6 29 24.5 28.2 42.8-.3 4.1-3.5 7.6-7.5 8.6-4 1.1-8.4-.7-10.7-4.1-2.6-3.7-1.3-8.5-2.7-12.5-2.8-10.1-12.5-17.8-23-18-4.2.1-8.5-2.1-10.1-6.1-2.4-5 .4-11.5 5.6-13.3zM61.2 281.3c1.6-.5 3.3-.5 4.9-.5 29.3.1 58.6 0 87.9 0 5.5-.2 10.4 4.7 10.1 10.2 0 5.3-4.8 10-10.1 9.8H65c-4.8.3-9.6-3.1-10.6-7.9-1.2-4.9 2-10.2 6.8-11.6zm1.3 138.3c28.5-.4 57-.1 85.6-.2 4-.3 8.1 1.9 9.8 5.5 2.3 4.3.7 10-3.3 12.7-2.2 1.6-5 1.8-7.6 1.8-27.6-.1-55.3 0-82.9-.1-5.1.1-9.7-4.3-9.9-9.4-.4-4.8 3.4-9.5 8.3-10.3zm123.7.6c5.1-2.3 11.7.8 13.3 6.2 1.8 5-1.4 11.1-6.5 12.5-5.1 1.8-11.1-1.4-12.6-6.5-1.5-4.7 1.1-10.4 5.8-12.2z"></path>
  </symbol>
  <symbol xmlns="http://www.w3.org/2000/svg" viewBox="0 0 438.4 512" id="install">
    <path d="M21.9 0h4.2c7 .8 13.6 4.6 17.4 10.6 5.3 7.8 5 18.8-.5 26.3-2.5 3.7-6.3 6.2-10.2 8.3V69h372.9V45.1c-9.3-4-15.7-14-14.4-24.1.8-10.8 10.2-19.8 20.9-21h4.3c7 .8 13.6 4.5 17.5 10.4 5.3 7.7 5.2 18.5-.1 26.1-2.5 3.9-6.4 6.5-10.5 8.6-.1 69 0 137.9 0 206.9.3 4.2-2.3 8.5-6.5 9.5-4 .7-8.1.3-12.2.4v183.6c8.6.1 17.1-.2 25.7.1 4.9 0 8.6 4.8 8.2 9.5 0 16 .1 32 0 48 .2 4.3-3.1 7.8-7 9H7.5c-4.2-.9-7.6-4.6-7.4-9-.1-15 0-30-.1-45 0-2.3 0-4.6.6-6.9 1.2-3.5 4.8-5.9 8.6-5.7 8.3-.1 16.5 0 24.8 0V262c-4-.1-8 .3-11.9-.3-4.3-.8-7.1-5.2-6.8-9.5V45.3c-4.3-2.2-8.3-5-10.8-9.2-5-7.6-5-18.1.2-25.6C8.4 4.5 15 .8 21.9 0m-.5 18.1c-3.8 1.7-4.4 7.4-1.1 9.8 3.3 2.9 9.1.5 9.5-3.9.7-4.4-4.5-8-8.4-5.9m390.1.2c-3.9 2-3.9 8.2.1 10.2 3.8 2.4 9.2-1.1 8.7-5.5-.2-4.1-5.3-6.9-8.8-4.7M32.7 86.5v26.3h372.9V86.5H32.7m0 43.9v26.3h372.9v-26.3c-124.3-.1-248.6-.1-372.9 0m.1 43.8v26.3h372.9v-26.3H32.8m-.1 43.8v26.3h372.9V218H32.7m18.8 43.9v183.5H387V261.9h-12.8v159.3c.3 4.9-4.1 9.2-8.9 9-42.3.1-84.6 0-126.9 0-5.2.5-10.1-3.9-9.7-9.1-.1-53.1 0-106.1 0-159.2h-18.5V417c-.1 3.1.4 6.5-1.5 9.3-1.7 2.8-5.1 4.1-8.3 4H74.5c-3.2.1-6.6-1-8.4-3.8-2.2-3-1.5-6.9-1.6-10.4V262c-4.5-.1-8.8-.1-13-.1m30.3 0V361c36.9-23.5 73.7-47 110.6-70.6v-28.5H81.8m164.2 0v138.8c36.8-23.5 73.7-47 110.5-70.6v-68.2H246M81.8 381.8v18.9c36.9-23.5 73.7-47 110.5-70.6v-18.9c-36.8 23.5-73.6 47.1-110.5 70.6m14 30.9h96.6V351c-32.3 20.5-64.4 41.1-96.6 61.7m164.1 0h96.7V351c-32.3 20.5-64.5 41.1-96.7 61.7M17.6 462.9v31.5h403.3v-31.5H17.6z"></path>
  </symbol>
  <symbol viewBox="0 0 512 512" xmlns="http://www.w3.org/2000/svg" id="scheme">
    <path d="M10.37 0h491.5c5.26.83 9.48 5.18 10.13 10.46v491.38c-.85 5.22-5.1 9.49-10.38 10.16H10.52c-5.24-.61-9.48-4.75-10.52-9.88V10.45C.63 5.08 5.04.72 10.37 0m12.91 23.27c-.01 15.51-.01 31.02 0 46.52 155.15.01 310.3.01 465.45 0-.01-15.5 0-31.01-.01-46.52-155.14-.01-310.29-.01-465.44 0m-.01 69.8c.01 15.53 0 31.06.01 46.6h46.53c.01-15.54 0-31.07.01-46.6-15.52-.01-31.03-.01-46.55 0m69.82 0c0 15.53-.01 31.07.01 46.6 38.79-.02 77.57.02 116.36-.02-.02-15.53.01-31.06-.02-46.59-38.78.01-77.56 0-116.35.01m139.64 0c-.04 15.51.05 31.01-.04 46.52 15.54.12 31.09.14 46.64-.01-.13-15.5-.01-31.01-.06-46.51-15.51 0-31.03-.01-46.54 0m69.82 0c-.02 15.53 0 31.06 0 46.59 38.78.02 77.57 0 116.35.01.02-15.54.01-31.07.01-46.6-38.79-.01-77.57 0-116.36 0m139.63 0c.01 15.54-.01 31.07.01 46.6 15.51-.01 31.02 0 46.53-.01.01-15.53 0-31.05.01-46.58-15.52-.02-31.03-.02-46.55-.01m-418.9 69.87c0 15.51-.04 31.02.02 46.54 155.12 0 310.23-.06 465.35.03.17-15.52.03-31.05.07-46.58-155.15 0-310.29 0-465.44.01m-.02 69.83c.03 15.5 0 31 .02 46.49 15.51.01 31.02 0 46.53.01.01-15.51 0-31.02 0-46.53-15.51.01-31.03-.05-46.55.03m69.83-.03v46.52c38.79.01 77.57.01 116.36 0 .01-15.51.01-31.01 0-46.52-38.79-.01-77.57-.01-116.36 0m139.64 0c-.01 15.51-.01 31.01 0 46.52 15.51.01 31.03.01 46.54 0 .01-15.51.01-31.01 0-46.52-15.52-.01-31.03-.02-46.54 0m69.83 0c-.02 15.5-.02 31.01-.01 46.52 38.79.01 77.57.01 116.36 0v-46.52c-38.79-.01-77.57-.01-116.35 0m139.63 0c0 15.51-.01 31.02 0 46.53 15.45.07 30.91-.15 46.36.11.41-15.54.06-31.1.17-46.64-15.51 0-31.02-.02-46.53 0M23.2 302.65c.18 15.46.02 30.93.08 46.4 155.14.04 310.29.01 465.44.01.02-15.5-.01-31.01.01-46.51-155.18.04-310.36-.16-465.53.1m.08 69.68c-.02 15.53 0 31.06-.01 46.59 15.52.02 31.03.02 46.55.01-.01-15.54.01-31.07-.01-46.6H23.28m69.82 0c-.02 15.53-.01 31.07-.01 46.6 38.79.01 77.57 0 116.35.01.03-15.54 0-31.06.02-46.59-38.79-.03-77.58-.01-116.36-.02m139.59.08c.08 15.5 0 31.01.04 46.52 15.51.01 31.02 0 46.54 0 .03-15.52-.02-31.04.02-46.55-15.53-.06-31.07-.11-46.6.03m69.85-.07c.01 15.53-.01 31.06.01 46.59h116.36v-46.59c-38.79 0-77.58-.02-116.37 0m139.65-.01c-.02 15.53 0 31.06-.01 46.6 15.52.01 31.03.01 46.55 0-.01-15.53 0-31.07-.01-46.6-15.51 0-31.02.01-46.53 0M23.27 442.21c.01 15.5 0 31.01.01 46.52 155.15.01 310.29 0 465.44 0 .01-15.51 0-31.02.01-46.52-155.15-.02-310.3-.01-465.46 0z"></path>
  </symbol>
  <symbol xmlns="http://www.w3.org/2000/svg" viewBox="0 0 512 383.1" id="ruler">
    <path d="M104.6 10.5c33.5-10.6 69.5-13 104.2-8 33.8 5 67 17.4 94.1 38.7 19.3 15.2 35.4 35.6 42.5 59.4 3.4 10.8 4.4 22.1 4.2 33.4v101H501c5.4-.3 9.7 4.1 11 9.1v129.6c-1 5.1-5.5 9.5-11 9.3-98 .1-196 0-294 0-22.4-.1-45 .8-67.2-2.5-30.3-4.4-60.1-14.7-85.5-32-16.6-11.3-31.4-25.8-41.7-43.2-6-10.2-10.1-21.5-12.6-33.1V111.5c3.9-21.1 14.8-40.6 29.6-56 20.4-21.4 47-36.2 75-45m48 12.3C114.8 26.7 76.7 40.3 49 66.9 33 82.4 21.2 103.4 20.8 126c-.7 17.2 5.1 34.3 15 48.3 14.3 20.4 35.5 35.1 58.2 44.8 33 14 69.7 18.4 105.2 14.5 32.3-3.7 64.4-14.4 90.4-34.4 17.1-13.2 31.4-31.2 36.7-52.4 4.9-18.9 1.8-39.4-7.7-56.3-12-21.5-32-37.4-53.6-48.4-34.6-17.3-74.2-23-112.4-19.3m118.9 212.1c19 .2 38.1.1 57.1 0-.1-15.3 0-30.6 0-45.9-15 19.6-34.8 35.5-57.1 45.9M21.1 189.8c.1 16.7 0 33.5 0 50.2.1 10.4-.6 20.9 1.8 31 4.4 20.3 17.2 38 32.9 51.2 24.3 20.5 55.1 32 86.2 36.9.1-8.7-.1-17.4.1-26.1.3-5.5 5.4-10.2 10.9-9.9 5.5 0 10.4 4.8 10.5 10.3.1 9.4.1 18.8 0 28.3 13.4.2 26.8 0 40.3.1v-27.7c-.3-5.6 4.6-10.7 10.1-10.9 5.6-.4 11.2 4.3 11.3 10 .2 9.5 0 19.1.1 28.6h38.5v-51.7c-.3-6.3 6-11.8 12.2-10.8 5.2.7 9.5 5.5 9.3 10.8.1 17.2 0 34.4 0 51.6h40.2V334c-.3-5.7 4.7-10.9 10.3-11 5.6-.3 11 4.4 11.1 10 .2 9.5 0 19.1.1 28.6 13.4-.1 26.8.1 40.2-.1-.1-9.4-.1-18.9 0-28.3.1-5.5 5.1-10.3 10.6-10.2 5.9-.2 11.1 5.1 11 11 .1 9.2-.1 18.5 0 27.7h40.1c.1-16.9 0-33.8 0-50.7-.1-3.2.9-6.4 3.2-8.7 3.4-3.4 9.1-4.3 13.2-1.6 4 2.2 5.6 6.9 5.3 11.3-.1 16.5.1 33-.1 49.5 6.5.2 13.1.1 19.6.1V256.7H180.8c-28.5.4-57.3-3.6-84.1-13.5-29.1-10.8-56.7-28.3-75.6-53.4z"></path>
    <path d="M162.5 70.7c17.1-2 34.9.2 50.7 7.1 13.6 5.9 26.1 15.6 33.3 28.8 5.9 10.7 7.3 23.7 3.5 35.3-4.1 12.8-13.5 23.3-24.6 30.5-14.9 9.8-32.8 14.3-50.5 14.5-20.5-.1-41.5-6.1-57.5-19.1-10.5-8.6-18.6-20.9-20-34.7-1.7-14.4 4.6-28.9 14.6-39.1 13.3-13.6 31.9-21.1 50.5-23.3m.6 21.5c-14.1 2.2-28.5 7.9-37.9 19.2-5.5 6.5-8.1 15.6-5.5 23.9 2.8 9.1 10.2 16 18.3 20.7 15.9 9 35.2 11.2 52.9 7.6 12.1-2.6 24-7.9 32.3-17.3 5.5-6.3 8.8-15.1 6.6-23.4-2.2-9.3-9.4-16.5-17.3-21.3-14.6-9-32.5-11.6-49.4-9.4z"></path>
  </symbol>
  <symbol viewBox="0 0 512 512" xmlns="http://www.w3.org/2000/svg" id="tools">
    <path d="M38.23 0h2.24c1.88.45 3.67 1.22 5.33 2.22 23.08 13.93 46.27 27.71 69.34 41.66 3.14 1.84 5 5.42 4.85 9.04.06 7.89-.05 15.79.03 23.68 40.9 40.98 81.79 81.97 122.7 122.96 24.56-24.54 49.13-49.07 73.64-73.67-4.78-17.82-4.67-36.97.77-54.63 8.15-26.79 27.83-50.02 53.29-61.84C382.6 3.61 396 .63 409.45 0h7.84c9.83.75 19.79 2.14 28.99 5.83 5.94 2.7 7.27 11.5 2.5 15.91-13.54 13.86-27.21 27.6-40.78 41.44.06 6.65-.18 13.31.09 19.95 6.93 7.89 14.57 15.21 21.8 22.87 6.62-.01 13.24.02 19.86-.01 13.85-13.92 27.64-27.91 41.52-41.8 4.42-4.82 13.26-3.39 15.92 2.58 2.45 6.02 3.68 12.47 4.81 18.85v28.64c-3.8 26.37-18.58 50.89-40.16 66.51-23.93 17.78-56 23.58-84.74 15.84-19.75 19.74-39.48 39.48-59.22 59.22 4.9 4.49 9.77 9 14.69 13.46 3.79-3.34 6.87-8.59 12.4-9.01 5.9-.68 11.42 4.85 10.75 10.75-.37 5.23-5.17 8.28-8.4 11.8 43.6 40.02 87.21 80.03 130.83 120.04 3.8 3.54 7.84 6.87 11.12 10.93 6.45 7.8 10.68 17.29 12.73 27.18v21.9c-2.64 13.46-9.71 26.09-20.27 34.92-10.31 8.81-23.69 13.73-37.21 14.2h-3.05c-15.64-.51-31.09-7.13-41.83-18.57-42.01-45.62-84-91.26-126.02-136.88-3.52 3.12-6.4 7.81-11.45 8.41-6.18 1.02-12.13-4.91-11.15-11.09.65-5.37 5.78-8.3 9.01-12.09-4.5-4.86-8.97-9.76-13.48-14.63-19.64 19.65-39.31 39.27-58.92 58.94 4.56 17.11 4.66 35.43-.17 52.49-7.59 27.21-27.05 50.97-52.51 63.33-12.85 6.34-27.1 9.59-41.4 10.09h-6.74c-9.86-.74-19.82-2.2-29.07-5.82-5.96-2.7-7.35-11.53-2.53-15.94 13.89-13.87 27.87-27.65 41.78-41.5.02-6.65 0-13.3.01-19.95-7.58-7.62-15.17-15.23-22.8-22.8-6.65.03-13.31-.01-19.96.02-13.85 13.9-27.62 27.9-41.5 41.77-3.41 3.57-9.5 3.92-13.29.75-2.71-2.03-3.56-5.47-4.48-8.55-6.79-23.38-4.81-49.26 5.75-71.22 11.69-24.64 34.07-43.78 59.98-52.1 18.07-5.98 37.85-6.21 56.19-1.3 24.52-24.4 48.94-48.9 73.4-73.36-40.86-41.02-81.81-81.94-122.66-122.97-8.25-.14-16.5.12-24.74-.11-3.53-.06-6.68-2.3-8.36-5.32-13.26-22.1-26.5-44.22-39.79-66.31-1.68-2.87-3.9-5.77-3.72-9.28 0-2.94 1.57-5.57 3.65-7.54 8.79-8.79 17.6-17.56 26.37-26.38C32.95 2.01 35.39.42 38.23 0m317.69 43.95C343.31 56.91 335 74.1 333.28 92.15c-1.11 11.06.26 22.31 3.7 32.86 1.53 3.9.39 8.5-2.7 11.29-65.67 65.66-131.32 131.34-197 196.99-2.79 3.1-7.41 4.23-11.31 2.68-14.83-4.89-31.11-5.43-46.17-1.19-21.1 5.91-39.68 20.68-49.8 40.16-7.35 13.95-10.18 30.11-8.54 45.75 10.37-10.39 20.68-20.84 31.04-31.25 1.93-2.06 4.61-3.46 7.49-3.41 9.33-.07 18.67-.03 28-.02 2.93-.13 5.75 1.15 7.77 3.24 9.34 9.31 18.67 18.64 27.98 27.99 2.09 2 3.34 4.83 3.24 7.75.06 8.69-.02 17.39.03 26.09.18 3.22-.6 6.61-2.99 8.91-10.53 10.56-21.19 20.99-31.72 31.54 17.55 1.84 35.75-2.02 50.74-11.41 16.53-10.25 29.05-26.71 34.66-45.32 4.76-15.51 4.38-32.45-.71-47.83-1.49-3.88-.44-8.49 2.7-11.24 65.83-65.83 131.66-131.66 197.49-197.48 2.76-2.89 7.17-3.61 10.86-2.25 16.1 5.24 33.86 5.33 49.94-.03 19.35-6.3 35.98-20.35 45.54-38.3 7.61-14.08 10.69-30.47 9.01-46.37-10.37 10.38-20.68 20.83-31.03 31.24-2.16 2.34-5.3 3.63-8.49 3.46-9-.01-18 .03-27-.02-2.93.09-5.78-1.13-7.77-3.26-7.9-8.1-15.71-16.28-23.59-24.41-2.73-2.95-6.48-5.78-6.58-10.19-.19-9.38-.03-18.77-.08-28.16-.13-2.91.85-5.87 2.95-7.94 10.29-10.56 20.72-20.99 31.01-31.54-24.07-2.79-49.24 5.91-66.03 23.47M23.61 39.84c11.82 19.75 23.64 39.49 35.48 59.22 7.65.07 15.31-.1 22.97.07 2.88.02 5.55 1.46 7.48 3.55 41.62 41.73 83.27 83.44 124.89 125.17 4.74-4.68 9.43-9.41 14.14-14.11-41.61-41.79-83.29-83.5-124.94-125.25-2.02-1.92-3.57-4.51-3.58-7.37-.15-7.67 0-15.34-.06-23.01-19.7-11.85-39.42-23.69-59.15-35.5-5.74 5.74-11.5 11.47-17.23 17.23m247.1 273.15c4.49 4.89 8.99 9.78 13.5 14.65 14.73-14.71 29.45-29.44 44.18-44.16-4.86-4.54-9.78-9.01-14.68-13.49-14.33 14.33-28.66 28.67-43 43m27.07 29.35c40.02 43.62 80.18 87.11 120.25 130.68 4.19 4.47 8.09 9.38 13.4 12.62 11.13 7.29 25.96 8.33 38.04 2.77 10.88-4.86 19.31-14.86 22.2-26.44 2.97-11.35.63-23.97-6.32-33.44-2.59-3.71-6.05-6.65-9.36-9.67-44.27-40.62-88.55-81.23-132.82-121.85-15.14 15.1-30.24 30.23-45.39 45.33z"></path>
    <path d="M345.3 155.49c7.26-2.28 14.72 5.63 12.02 12.74-1.91 6.89-11.69 9.24-16.52 3.97-5.5-4.98-2.74-15.14 4.5-16.71zm-29.97 28.89c4.58-2.27 10.63-.27 12.98 4.25 2.33 4.02 1.19 9.35-2.21 12.39-41.35 41.36-82.7 82.71-124.06 124.07-3.34 3.83-9.58 4.65-13.62 1.44-4.77-3.39-5.33-11.04-1.03-15.04 41.48-41.55 83.04-83.04 124.54-124.58 1.02-.98 2.11-1.92 3.4-2.53zM162.4 337.58c7.05-3.25 15.57 4 13.46 11.48-1.28 7.16-11.07 10.3-16.3 5.27-5.57-4.48-3.88-14.35 2.84-16.75zm191.8 7.63c3.46-.62 6.97.89 9.31 3.43 28.69 28.59 57.37 57.18 86.05 85.77 2.42 2.46 5.44 4.84 6.11 8.43 1.24 5.11-2.33 10.69-7.44 11.77-3.55.94-7.33-.44-9.79-3.05-28.57-28.44-57.09-56.92-85.66-85.37-2.59-2.74-6.08-5.17-6.78-9.14-1.27-5.35 2.79-11.09 8.2-11.84z"></path>
  </symbol>
  <symbol xmlns="http://www.w3.org/2000/svg" viewBox="0 0 512 386.1" id="scooter">
    <path d="M40.6 16.7C55.9 6.1 74.4.1 93 0h65c9.1-.2 18 4 23.7 11.1 4.6 5.5 6.9 12.7 6.7 19.8v86.7c3.4-1 6.9-1.7 10.4-1.6h35.1c4.6 0 9.2.8 13.3 2.7 11.2 4.9 18.6 17.2 17.5 29.4-.5 9.9-6.5 18.8-14.8 23.9 2.2 4.7 3.6 9.8 3.4 15v78.9h43.6c10.7-.1 21.2-4.6 28.5-12.4 6.8-7.1 10.7-16.8 10.8-26.6.1-11.3 0-22.6.1-34-.1-5.5 5.1-10.2 10.5-9.7 5.1.2 9.4 4.7 9.4 9.8.1 10.7 0 21.3 0 32 .1 8.9-1.7 17.9-5.4 26-8.9 20.2-29.9 34.3-51.9 34.9-17.4.2-34.7 0-52.1.1-3.1 0-6.6.1-9.2-1.9-3-2-4.5-5.6-4.3-9.2-.1-29.7.1-59.3-.1-89 .1-5.5-4.9-10.2-10.4-10-24.4 0-48.8-.1-73.1 0-35.3.4-70.1 16-94.1 41.9C33.5 241.5 20.5 273.5 20 306h20.5c2.9-26 18.9-50 41.6-62.9 19.6-11.4 44-14.2 65.7-7.7 16.1 4.7 30.6 14.5 41.2 27.5 10.1 12.2 16.4 27.4 18.4 43.1 39.5 0 79.1.1 118.6 0 10.5.1 20.7-6 25.7-15.2 15.8-28 31.5-56.1 47.3-84.2-8.2-37.9-16.7-75.7-25.1-113.6h-17.5v17c0 3 .1 6.2-1.7 8.7-2.6 4.1-8.4 5.6-12.7 3.4-3.4-1.6-5.6-5.3-5.6-9.1-.1-6.7 0-13.4 0-20.1h-51.5c-10.8.1-21.1-7.2-24.5-17.4-3-8.3-1.3-18 4.3-24.8 4.6-5.8 11.8-9.5 19.2-9.7 8.2-.2 16.5 0 24.7-.1 3.8-9.3 13.2-16.1 23.3-16h59c7.1-.1 13.8 3.2 18.7 8.3 10.5-6.8 23.4-4.1 35.2-4.7 5.8-.6 11.3 4.4 11 10.2 0 13.4.1 26.8 0 40.2 0 5.6-5.4 10-10.8 9.6-11.7-.5-24.4 2.1-34.9-4.5-4.2 4.6-9.7 7.6-15.8 8.7 7.8 35.1 15.5 70.1 23.3 105.2 28 .9 55.2 14.6 72.6 36.6 12.9 15.8 20.3 35.8 21.7 56.1v6.5c-.8 4.4-4.4 8.3-9 8.6-5.8.3-11.6 0-17.3.1 6.2 15.3 5.7 33.2-1.8 47.9-9.2 18.7-29 31.5-49.8 32.1-57.3.1-114.7 0-172 0-5 .6-10.8-1.1-12.7-6.2-3-6.4 2.7-14.4 9.7-13.8 43-.1 86.1 0 129.1 0-14.2-16.1-18.1-40.2-9.8-60h-12.5c-9.2 12.4-24.3 20.1-39.8 20H181.9c.5 14.5-4.6 29-14.1 39.9-10.6 12.4-26.5 19.8-42.8 20.1-38.4-.1-76.8 0-115.1-.1-5.1.1-9.4-4.2-9.9-9.1v-1.5c.4-4 3.2-7.7 7.1-8.8 3.3-.8 6.6-.5 9.9-.5h63.2c-9.4-11-14.7-25.4-14.1-39.9-18.7 0-37.4.1-56.1-.1-4.9.1-9-3.8-10-8.5v-11.1c.4-40.7 18.1-80.7 47.7-108.5l-20.8-20.8c-1.7-1.8-4.3-1.9-6.5-2.7C9.2 170.8 1.1 160.1 0 148.4V88.3C.6 83 1.2 77.8 2.5 72.6c5.1-22.5 19.1-42.8 38.1-55.9m9.2 18.1C37.3 44 27.9 57.3 23.3 72.1H129c5.4-.3 10.5 4.4 10.4 9.9.2 5.6-4.9 10.4-10.5 10.1H20c0 18-.1 36 0 53.9-.1 5.3 4.6 10 9.9 9.9 42 .1 84 0 126 .1 2-.1 4.2.1 6.1-.7 4.2-1.5 6.7-6 6.4-10.4V30c.2-5.6-4.9-10.4-10.4-10.1H94c-15.8.1-31.6 5.3-44.2 14.9m280.4 10.5c-1.8.7-3.2 2.5-3.2 4.5-.1 6.1-.1 12.2 0 18.2-.1 2.6 2.3 4.9 4.9 4.9 19 .1 38 0 57.1.1 1.9 0 4.1.1 5.5-1.5 1.8-1.6 1.4-4.3 1.5-6.5-.1-5.1.1-10.1-.1-15.2.1-2.6-2.3-4.9-4.9-4.8-18.7-.1-37.4 0-56.1-.1-1.5.1-3.1 0-4.7.4m89.1 6c-4.5 3.8-4.3 11.5.4 15.1 4.6 3.7 10.9 1.9 16.3 2.3v-20c-5.5.4-12.2-1.6-16.7 2.6M279.8 64c-2.2 3.4.1 8.4 4.1 8.9 7.8.3 15.6 0 23.5.1-.5-4-.5-8-.4-12h-21c-2.4-.2-5 .8-6.2 3m-83.6 72.3c-4.7 1-8.2 5.8-7.6 10.6.4 5.2 5.3 9.4 10.4 9.1h36c4.9.1 9.5-4 9.9-9 .8-5.6-4.2-11.1-9.8-11-13 .1-26-.4-38.9.3M54.2 176l9 9c4.5-3.2 9.1-6.2 13.9-9H54.2m361.2 42.1c-12.6 22.7-25.4 45.2-38 67.8h114c-2.4-18.6-11.8-36.1-25.9-48.4-13.7-12.1-31.8-19.3-50.1-19.4M83 266.9c-11.9 9.7-19.9 24-22.3 39.1h126.5c-2.2-13.2-8.5-25.7-18-35.2-11.3-11.5-27.1-18.4-43.2-18.8-15.5-.6-31.2 4.8-43 14.9m318.1 39c-7.4 10.3-9.1 24.4-4.3 36.2 4 10 12.4 18.1 22.5 21.6 10.3 3.8 22.3 2.7 31.7-2.9 10.4-5.9 17.6-16.9 18.8-28.8 1.1-9.2-1.5-18.6-6.8-26.2-20.7.1-41.3.1-61.9.1M85.8 326c0 8.7 2.3 17.5 7.6 24.5 7.6 10.4 20.7 16.4 33.5 15.3 11.5-.8 22.5-7.4 28.7-17.1 4.6-6.7 6.3-14.8 6.4-22.8-25.3.1-50.7.1-76.2.1z"></path>
    <path d="M343.5 143.6c7.2-2.6 15.1 5.1 12.6 12.4-1.8 7.2-12.1 9.6-16.9 3.9-5.1-4.9-2.5-14.4 4.3-16.3zM215.3 366.5c6.9-2.7 14.8 4.2 13 11.4-1.2 7.4-11.4 10.7-16.6 5.3-5.5-4.6-3.3-14.6 3.6-16.7z"></path>
  </symbol>
  <symbol viewBox="0 0 512 512" xmlns="http://www.w3.org/2000/svg" id="recommendation">
    <path d="M0 1.53c21.33.01 42.66-.01 64 .01-.07 10.69.15 21.38-.12 32.07-10.62-.17-21.25-.04-31.87-.07-.03 117.31.01 234.63-.02 351.95 91.67.11 183.34 0 275.01.05 2.49-.04 4.38 1.85 6.42 3 34.18 21.4 68.4 42.72 102.57 64.13.02-22.38 0-44.75.01-67.13 21.33-.01 42.65-.02 63.97.01.07-117.34.02-234.67.02-352.01-85.34-.06-170.69.09-256.03-.08.09-10.64.01-21.28.05-31.92C320 1.52 416 1.54 512 1.53v416c-21.33.01-42.66-.01-64 .01-.01 30.96.01 61.91 0 92.87-48.89-30.57-97.8-61.1-146.68-91.7-2.42-1.8-5.55-1.07-8.34-1.19-97.66.03-195.32 0-292.98.01v-416z"></path>
    <path d="M96 1.56c10.67-.01 21.33-.01 32 0-.05 10.68.1 21.37-.08 32.05-10.61-.07-21.22-.09-31.83.01-.21-10.69-.03-21.37-.09-32.06zm64.01 0c10.66 0 21.32-.01 31.99 0-.04 10.68.07 21.36-.06 32.03-10.67-.16-21.36.18-32.02-.17.18-10.61.02-21.24.09-31.86zm50.59 153.13C225.67 124 240.85 93.36 256 62.7c15.38 31.08 30.71 62.2 46.06 93.3.54 1.68 2.57 1.26 3.92 1.62 33.61 4.78 67.21 9.72 100.81 14.61-25.08 24.57-50.27 49.02-75.39 73.55 5.95 34.57 11.88 69.15 17.8 103.73-31.07-16.3-62.09-32.7-93.2-48.93-31.07 16.28-62.09 32.66-93.19 48.88 5.9-34.58 11.84-69.15 17.79-103.73-25.09-24.55-50.27-49.01-75.4-73.53 34.29-4.94 68.57-9.9 102.84-14.95 1.56.16 1.97-1.52 2.56-2.56m19.9 31.74c-18.85 2.67-37.67 5.5-56.52 8.15 13.64 13.27 27.19 26.63 40.92 39.81-2.98 18.93-6.46 37.78-9.6 56.68 16.89-8.91 33.82-17.74 50.7-26.68 16.92 8.84 33.8 17.75 50.7 26.63-3.16-18.88-6.64-37.72-9.59-56.64 13.76-13.13 27.29-26.51 40.91-39.79-18.89-2.84-37.81-5.5-56.71-8.27-8.31-17.11-16.93-34.07-25.16-51.22-8.9 16.92-16.88 34.34-25.65 51.33z"></path>
  </symbol>
  <symbol xmlns="http://www.w3.org/2000/svg" viewBox="0 0 53777 44014" id="palette">
    <path d="M23419 38462V7410c0-2949-2775-5551-5898-5551H5031C2082 1859 0 4288 0 7410v31052c0 3296 2082 5551 5031 5551h12663c3122 0 5898-2602 5725-5551zm-3469 174c0 1041-1214 2081-2429 2081H5031c-1561 0-1561-1735-1561-2081V7584c0-347 0-2082 1561-2082v-173h12490c1215 0 2429 1041 2429 2081v31225z"></path>
    <path d="M34695 16605c-867-520-1908-173-2429 694L20296 39677c-520 867-174 1908 694 2429 347 174 520 174 867 174 694 0 1214-347 1561-867l11970-22378c520-867 174-1908-694-2429zm3989-6419c-347-1388-1388-2602-2602-3296L25153 645c-2429-1214-5378-694-7112 1388-521 694-347 1908 347 2429 694 520 1908 347 2429-347 694-867 1735-1041 2602-521l10929 6245c347 174 694 694 867 1214 174 520 174 1041-173 1561-347 867-174 1908 694 2429 347 174 521 174 867 174 520 0 1041-347 1561-867 694-1214 867-2776 520-4163z"></path>
    <path d="M43195 28228c-520-867-1561-1215-2429-694L18908 40197c-867 520-1214 1561-694 2429 347 520 1041 867 1561 867 174 0 520 0 867-174l21857-12663c867-520 1214-1561 694-2429zm6245-7980L43195 9319c-1214-2082-3643-3123-6072-2602-347 173-520 173-867 347-867 347-1214 1388-867 2255s1388 1214 2255 867c173-174 173-174 347-174 867-173 1735 174 2255 1041l6245 10929c694 1041 347 2255-694 2776-867 520-1214 1561-694 2429 347 520 1041 867 1561 867 173 0 520-174 694-347 2775-1388 3643-4857 2081-7459z"></path>
    <path d="M52042 30483c-1041 0-1735 694-1735 1735v6245c0 1041-1388 2082-2602 2082H16827c-1041 0-1735 694-1735 1735s694 1735 1735 1735h30878c2776 0 6072-2429 6072-5551v-6245c0-1041-694-1735-1735-1735z"></path>
    <path d="M51695 21636c-694-521-1908-347-2429 347-520 694-347 1908 347 2429 347 347 694 867 694 1561v6245c0 1041 694 1735 1735 1735 867 0 1735-867 1735-1735v-6245c0-1735-694-3296-2082-4337zM17347 35860c-694-694-1735-694-2429 0-347 347-520 694-520 1214 0 347 174 867 520 1214 347 347 694 520 1214 520 347 0 867-173 1215-520 347-347 520-694 520-1214s-174-867-520-1214z"></path>
  </symbol>
  <symbol xmlns="http://www.w3.org/2000/svg" viewBox="0 0 59892 58020" id="garanty">
    <path d="M56684 20287c-790-2447-453-6121-2507-8957-2070-2859-5671-3671-7704-5158-2012-1471-3883-4673-7267-5777-3289-1073-6652 383-9259 383s-5970-1457-9259-383c-3383 1104-5257 4307-7267 5777-2031 1485-5634 2300-7704 5158-2052 2834-1719 6516-2508 8957C2458 22611 1 25399 1 29010c0 3613 2455 6391 3208 8723 790 2447 453 6120 2507 8957 2070 2859 5671 3671 7704 5158 2011 1471 3883 4673 7267 5777 3286 1073 6654-383 9259-383 2601 0 5977 1454 9259 383 3383-1104 5256-4306 7267-5777 2031-1485 5635-2300 7704-5158 2053-2834 1719-6515 2508-8957 751-2324 3208-5112 3208-8723 0-3613-2454-6390-3208-8723zm-4452 16008c-921 2851-680 6042-1845 7651-1181 1630-4283 2375-6677 4126-2367 1731-4026 4476-5956 5106-1826 596-4801-614-7807-614-3028 0-5973 1212-7807 614-1930-630-3586-3372-5956-5106-2380-1740-5500-2500-6677-4126-1161-1604-929-4817-1845-7651-897-2777-2982-5181-2982-7285 0-2105 2083-4502 2981-7284 921-2851 680-6042 1845-7651 1180-1629 4284-2376 6677-4126 2375-1737 4024-4475 5956-5106 1824-595 4810 614 7807 614 3034 0 5971-1213 7807-614 1929 630 3587 3374 5956 5106 2379 1741 5499 2500 6677 4126 1161 1604 928 4814 1845 7651 897 2777 2981 5181 2981 7285 0 2106-2082 4502-2981 7285zM40725 21501c914 914 914 2395 0 3309L29015 36520c-914 914-2395 913-3309 0l-6538-6538c-914-914-914-2395 0-3309 913-913 2395-914 3308 0l4884 4884 10056-10055c914-914 2395-914 3309 0z"></path>
  </symbol>
  <symbol xmlns="http://www.w3.org/2000/svg" viewBox="0 0 13540 19291" id="location">
    <path d="M6770 0C3031 0 0 3031 0 6770c0 286 23 565 58 842 579 5288 6273 11383 6273 11383 101 113 199 183 293 234l5 2 190 60 189-60 5-2c94-51 192-124 294-234 0 0 5612-6106 6177-11395 34-273 57-549 57-831C13540 3031 10510 0 6771 0zm0 11125c-2401 0-4355-1954-4355-4355s1954-4355 4355-4355 4353 1954 4353 4355-1953 4355-4353 4355z"></path>
  </symbol>
  <symbol xmlns="http://www.w3.org/2000/svg" viewBox="0 0 17861 12810" id="mail">
    <path d="M17847 1607l-4817 4798 4815 4795c26-332 15-9436 2-9593zM16112 0H1749C1282 0 852 184 538 485c3273 3260 4985 4966 7981 7949 227 227 596 228 823 1 3014-3002 4990-4970 7979-7947-316-305-744-488-1208-488zM14 1607c-13 161-25 9263 2 9595l4824-4788L14 1607z"></path>
    <path d="M12205 7227l-2040 2032c-680 680-1785 683-2469-1L5665 7235 542 12320c314 302 738 489 1207 489h14363c469 0 894-188 1208-490l-5115-5093z"></path>
  </symbol>
  <symbol xmlns="http://www.w3.org/2000/svg" viewBox="0 0 82917 82959" id="material">
    <path d="M82917 41479c0-604-336-1158-872-1437l-15622-8129 15622-8128c536-279 872-833 872-1437s-336-1158-872-1437l-13456-7001c-794-413-1772-104-2184 689-413 793-104 1771 689 2184l10694 5564-36331 18904L5126 22347 41457 3443l12707 6612c794 413 1772 104 2184-689 413-793 104-1772-689-2184L42204 181c-469-244-1026-244-1495 0L870 20910c-536 279-872 833-872 1437s336 1158 872 1437l15622 8129L870 40042c-536 279-872 833-872 1437s336 1158 872 1437l15622 8129L870 59174c-536 279-872 833-872 1437s336 1158 872 1437l39839 20729c234 122 491 183 748 183 256 0 513-61 748-183l39839-20729c536-279 872-833 872-1437s-336-1158-872-1437l-15622-8129 15622-8129c536-279 872-833 872-1437zm-40711 3036l20708-10775 4828 2512-36273 18934-6462-3363 14875-7739 828 431c234 122 491 183 748 183s513-61 748-183zm-5832-2257l-14875 7740-6432-3346 14875-7740 6431 3346zm-16371-8518l6431 3346-14875 7740-6432-3347 14875-7739zm57787 26870L41459 79514 5128 60610l14875-7740 20708 10775c234 122 491 183 748 183s513-61 748-183l20708-10775 14875 7740zm-36331-227l-6483-3374 36273-18934 6541 3403-36331 18904z"></path>
    <path d="M61378 13604c426 0 844-173 1145-475 301-301 475-719 475-1145s-173-844-475-1145c-301-301-719-474-1145-474s-844 173-1145 474-475 719-475 1145 173 844 475 1145c301 301 719 475 1145 475z"></path>
  </symbol>
  <symbol xmlns="http://www.w3.org/2000/svg" viewBox="0 0 62172 62172" id="gear">
    <path d="M33037 62172h-3902c-3156 0-5723-2568-5723-5723v-1320c-1342-429-2645-970-3898-1618l-935 935c-2266 2269-5895 2202-8095-1l-2758-2758c-2204-2201-2267-5829 1-8095l935-935c-648-1252-1189-2555-1618-3897H5724C2568 38760 1 36192 1 33037v-3902c0-3156 2568-5723 5723-5723h1320c429-1342 970-2645 1618-3898l-935-935c-2266-2264-2204-5893 1-8095l2758-2758c2205-2208 5834-2263 8095 1l935 934c1252-648 2556-1189 3897-1618V5723c0-3156 2568-5723 5723-5723h3902c3156 0 5723 2568 5723 5723v1320c1342 429 2645 970 3897 1618l935-935c2266-2269 5895-2202 8095 1l2758 2758c2204 2201 2267 5830-1 8095l-935 935c648 1252 1189 2556 1618 3898h1320c3156 0 5723 2567 5723 5723v3902c0 3156-2568 5723-5723 5723h-1320c-429 1342-970 2645-1618 3897l936 936c2266 2264 2204 5893-1 8095l-2758 2758c-2205 2208-5834 2263-8095-1l-935-934c-1252 648-2556 1189-3897 1618v1320c0 3156-2568 5723-5724 5723zM20123 49685c1740 1029 3612 1806 5565 2310 804 207 1366 933 1366 1764v2689c0 1147 934 2080 2081 2080h3902c1147 0 2081-933 2081-2080v-2689c0-831 562-1556 1366-1764 1953-504 3825-1281 5565-2310 716-423 1627-308 2215 280l1905 1905c821 822 2140 803 2942 1l2760-2760c799-798 826-2117 1-2942l-1906-1906c-588-588-703-1499-280-2215 1029-1740 1806-3612 2310-5565 208-804 933-1366 1764-1366h2689c1147 0 2081-933 2081-2080v-3902c0-1147-934-2081-2081-2081h-2689c-831 0-1556-562-1764-1366-504-1953-1281-3826-2310-5565-423-716-308-1627 280-2215l1905-1905c824-823 802-2141 1-2942l-2759-2760c-800-801-2119-824-2942-1l-1906 1906c-588 588-1500 703-2215 280-1740-1029-3612-1806-5565-2310-804-207-1366-933-1366-1764V5722c0-1147-933-2080-2081-2080h-3902c-1147 0-2081 933-2081 2080v2689c0 831-562 1556-1366 1764-1953 504-3825 1281-5565 2310-716 423-1627 308-2215-280l-1905-1905c-821-822-2141-803-2942-1l-2760 2760c-799 798-826 2117-1 2942l1906 1906c588 588 703 1499 280 2215-1029 1740-1806 3612-2310 5565-208 804-933 1366-1764 1366H5724c-1147 0-2081 934-2081 2081v3902c0 1147 934 2081 2081 2081h2689c831 0 1556 562 1764 1366 504 1953 1281 3826 2310 5565 423 716 308 1627-280 2215l-1905 1905c-824 823-802 2141-1 2942l2760 2760c800 801 2119 824 2942 1l1906-1906c433-433 1335-801 2215-280z"></path>
    <path d="M31086 44613c-7459 0-13527-6068-13527-13527s6068-13527 13527-13527 13527 6068 13527 13527-6068 13527-13527 13527zm0-23412c-5450 0-9884 4434-9884 9884s4434 9884 9884 9884 9884-4434 9884-9884-4434-9884-9884-9884z"></path>
  </symbol>
  <symbol xmlns="http://www.w3.org/2000/svg" viewBox="0 0 26546 26546" id="clock">
    <path d="M25768 12495c-430 0-778 348-778 778 0 6461-5256 11717-11717 11717S1556 19734 1556 13273 6812 1556 13273 1556c1970 0 3887 489 5597 1421l-972 972c-222 222-289 557-169 848s404 480 718 480h3721c430 0 778-348 778-778V778c0-315-189-598-480-719-291-120-625-54-848 169l-1608 1608C17973 633 15657 0 13272 0 9727 0 6393 1381 3887 3888 1380 6395-1 9728-1 13273s1381 6878 3888 9385 5840 3888 9385 3888 6878-1381 9385-3888 3888-5840 3888-9385c0-430-348-778-778-778z"></path>
    <path d="M18271 12495h-4220V8275c0-430-348-778-778-778s-778 348-778 778v4998c0 430 348 778 778 778h4998c430 0 778-348 778-778s-348-778-778-778z"></path>
  </symbol>
  <symbol xmlns="http://www.w3.org/2000/svg" viewBox="0 0 40104 52753" id="screwdriver">
    <path d="M39480 29679c-420-1301-252-2715 463-3881 207-339 216-763 22-1109s-560-561-957-561h-1645V8753l752-2007c46-123 70-253 70-385V1097c0-606-491-1097-1097-1097h-6032c-606 0-1097 491-1097 1097v5264c0 131 24 262 70 385l753 2007v15375h-1645c-397 0-763 215-957 561s-186 770 22 1109c714 1166 883 2580 463 3881-414 1282-624 2571-624 3830v16000c0 1729 1406 3135 3135 3135h5794c1729 0 3135-1406 3135-3135V33509c0-1260-210-2548-624-3830zM32153 2194h3839v3969l-752 2007c-46 123-70 253-70 385v15574h-2193V8555c0-131-24-262-70-385l-752-2007V2194zm5758 47316c0 519-422 941-941 941h-5794c-519 0-941-422-941-941V33510c0-1030 174-2092 518-3156 427-1322 440-2725 60-4031h6522c-381 1306-368 2709 60 4031 344 1064 518 2126 518 3156v16000z"></path>
    <path d="M34072 31993c-606 0-1097 491-1097 1097v215c0 606 491 1097 1097 1097s1097-491 1097-1097v-215c0-606-491-1097-1097-1097zm0 4245c-606 0-1097 491-1097 1097v9359c0 606 491 1097 1097 1097s1097-491 1097-1097v-9359c0-606-491-1097-1097-1097zM17227 357c-314-314-786-408-1195-238-410 170-677 570-677 1013v10967H8775V1132c0-444-267-844-677-1013-410-170-882-76-1195 238L4037 3223C1435 5825 2 9285 2 12965v1952c0 2779 1351 5401 3613 7014 1686 1202 2693 3157 2693 5228v22961c0 1451 1181 2632 2632 2632h6252c1451 0 2632-1181 2632-2632V27159c0-2071 1007-4026 2693-5228 2263-1613 3613-4235 3613-7014v-1952c0-3680-1433-7140-4035-9742L17229 357zm4708 14560c0 2071-1007 4026-2693 5228-2262 1613-3613 4235-3613 7014v22961c0 242-197 438-438 438H8939c-242 0-438-197-438-438V27159c0-2779-1351-5400-3613-7014-1686-1203-2693-3157-2693-5228v-1952c0-3094 1205-6003 3393-8191l994-994v9417c0 606 491 1097 1097 1097h8774c606 0 1097-491 1097-1097V3780l994 994c2188 2188 3393 5097 3393 8191v1952z"></path>
    <path d="M14806 18334H9322c-606 0-1097 491-1097 1097s491 1097 1097 1097h5484c606 0 1097-491 1097-1097s-491-1097-1097-1097z"></path>
  </symbol>
  <symbol xmlns="http://www.w3.org/2000/svg" viewBox="0 0 201732 201733" id="laser">
    <path d="M195822 165091H30338c-3265 0-5911 2646-5911 5910v24822c0 3264 2646 5910 5911 5910 3263 0 5910-2646 5910-5910v-18912h153664v18912c0 3264 2646 5910 5910 5910s5910-2646 5910-5910v-24822c0-3264-2646-5910-5910-5910zm0 0zM53738 123874c-2307 2308-2307 6051 0 8358l29158 29156c1153 1155 2666 1732 4180 1732 1511 0 3024-576 4178-1732 2307-2307 2307-6050 0-8356l-29156-29158c-2310-2308-6051-2308-8359 0zm0 0zm99095 13987l-15958 15958c-2308 2307-2308 6051 0 8358 1154 1154 2667 1731 4180 1731 1511 0 3024-576 4178-1731l15958-15958c2308-2307 2308-6050 0-8358s-6051-2308-8358 0zm0 0zM37025 107122c-2307 2308-2307 6050 0 8358l1724 1724c1154 1154 2667 1732 4178 1732 1513 0 3025-578 4178-1732 2310-2307 2310-6050 1-8356l-1723-1724c-2308-2310-6051-2310-8359-1zm0 0zm32714-35412c0 992 248 1927 679 2749 5 9 7 17 10 26 5 7 8 12 12 20 8 13 13 25 20 38 2087 3924 11536 21633 12582 23592 1028 1924 3031 3126 5214 3126h7092v35855c0 3264 2646 5910 5911 5910h5910v10639c0 3264 2647 5910 5910 5910 3264 0 5910-2646 5910-5910v-10639h5910c3264 0 5910-2646 5910-5910v-35855h7088c2184 0 4191-1205 5218-3134 0 0 10919-20478 12584-23587 7-10 13-21 17-34 3-1 4-4 5-5 51-95 91-180 123-260 366-767 578-1625 578-2531V23641h16155c3263 0 5910-2647 5910-5910V5911c0-3264-2647-5910-5910-5910-3264 0-5910 2645-5910 5910v5910H5912C2648 11821 2 14467 2 17731c0 3263 2646 5910 5910 5910h63829v48069zm49250 59496h-11820v-29945h11820v29945zm15358-41765H91800c-488-915-5747-10778-6304-11820h55153c-120 227-4760 8922-6303 11820zM81560 23642h63041v42159H81560V23642zm0 0z"></path>
  </symbol>
  <symbol xmlns="http://www.w3.org/2000/svg" viewBox="0 0 53736 68396" id="list">
    <path d="M46896 8961h-6188V6193c0-896-977-1303-1873-1303h-4803C32892 1633 30043 5 26786 5c-3221-121-6151 1854-7246 4885h-4722c-896 0-1791 407-1791 1303v2768H6839C3172 9000 172 11893 0 15556v46652c0 3582 3257 6188 6839 6188h40057c3583 0 6839-2605 6839-6188V15556c-172-3663-3172-6556-6839-6595zm-30613-814h4478c782-95 1410-690 1547-1466 482-2100 2324-3607 4478-3664 2134 64 3948 1577 4396 3664 146 802 816 1405 1629 1466h4641v6513H16283V8147zm34196 54061c0 1791-1791 2931-3583 2931H6839c-1791 0-3583-1140-3583-2931V15556c166-1865 1711-3304 3583-3338h6188v4153c86 912 876 1594 1791 1547h24018c932 51 1747-622 1873-1547v-4153h6188c1871 34 3416 1474 3582 3338v46652z"></path>
    <path d="M20599 36399c-611-644-1625-680-2280-81l-5211 4967-2198-2280c-611-644-1625-680-2280-81-631 661-631 1701 0 2361l3338 3420c289 324 706 503 1140 489 430-6 839-182 1140-489l6350-6025c630-578 672-1556 94-2186-30-33-61-64-94-94zm23367 3501H25240c-899 0-1628 729-1628 1628s729 1628 1628 1628h18726c899 0 1628-729 1628-1628s-729-1628-1628-1628zM20599 23372c-611-644-1625-680-2280-81l-5211 4967-2198-2280c-611-644-1625-680-2280-81-631 661-631 1701 0 2361l3338 3420c289 324 706 503 1140 489 430-6 839-182 1140-489l6350-6025c630-577 672-1556 94-2185-30-33-61-64-94-94zm23367 3501H25240c-899 0-1628 729-1628 1628s729 1628 1628 1628h18726c899 0 1628-729 1628-1629 0-899-729-1628-1628-1628zM20599 49426c-611-644-1625-680-2280-81l-5211 4966-2198-2280c-611-644-1625-680-2280-81-631 661-631 1700 0 2361l3338 3420c289 324 706 503 1140 489 430-6 839-182 1140-489l6350-6025c630-578 672-1556 94-2186-30-33-61-64-94-94zm23367 3501H25240c-899 0-1628 729-1628 1628s729 1628 1628 1628h18726c899 0 1628-729 1628-1628s-729-1628-1628-1628z"></path>
  </symbol>
  <symbol xmlns="http://www.w3.org/2000/svg" viewBox="0 0 2042 2042" id="instagram">
    <path d="M1489 0H553C248 0 0 248 0 553v936c0 305 248 553 553 553h936c305 0 553-248 553-553V553c0-305-248-553-553-553zm433 1489c0 239-194 433-433 433H553c-239 0-433-194-433-433V553c0-239 194-433 433-433h936c239 0 433 194 433 433v936zm0 0z"></path>
    <path d="M1021 463c-308 0-558 250-558 558s250 558 558 558 558-250 558-558-250-558-558-558zm0 997c-242 0-439-197-439-439s197-439 439-439 439 197 439 439-197 439-439 439zm0 0zm571-1196c-91 0-165 74-165 165s74 165 165 165 165-74 165-165-74-165-165-165zm0 210c-25 0-45-20-45-45s20-45 45-45 45 20 45 45-20 45-45 45zm0 0z"></path>
  </symbol>
  <symbol xmlns="http://www.w3.org/2000/svg" viewBox="0 0 6 10.5" id="arrow-left">
    <path d="M0 5.3c0 .2.1.4.2.5l4.5 4.5c.3.3.8.3 1 0s.3-.8 0-1l-4-4 4-4c.3-.3.3-.8 0-1s-.8-.3-1 0L.2 4.7c-.1.2-.2.4-.2.6z"></path>
  </symbol>
  <symbol xmlns="http://www.w3.org/2000/svg" viewBox="0 0 6 10.5" id="arrow-right">
    <path d="M6 5.3c0-.2-.1-.4-.2-.5L1.2.2C.9-.1.4-.1.2.2s-.3.8 0 1l4.1 4.1-4.1 4c-.3.3-.3.8 0 1 .3.2.8.3 1 0l4.6-4.5c.1-.1.2-.3.2-.5z"></path>
  </symbol>
  <symbol xmlns="http://www.w3.org/2000/svg" viewBox="0 0 46.4 45" id="check">
    <path d="M43.9 15.7c-.6-1.9-.4-4.7-1.9-6.9-1.6-2.2-4.4-2.8-6-4-1.6-1.1-3-3.6-5.6-4.5-2.5-.8-5.2.3-7.2.3S18.6-.5 16 .3c-2.6.9-4.1 3.3-5.6 4.5-1.6 1.1-4.4 1.8-6 4-1.6 2.2-1.3 5-1.9 6.9-.6 1.8-2.5 4-2.5 6.8s1.9 5 2.5 6.8c.6 1.9.4 4.7 1.9 6.9 1.6 2.2 4.4 2.8 6 4 1.6 1.1 3 3.6 5.6 4.5 2.5.8 5.2-.3 7.2-.3s4.6 1.1 7.2.3c2.6-.9 4.1-3.3 5.6-4.5 1.6-1.1 4.4-1.8 6-4 1.6-2.2 1.3-5 1.9-6.9.6-1.8 2.5-4 2.5-6.8s-1.9-5-2.5-6.8zm-3.4 12.4c-.7 2.2-.5 4.7-1.4 5.9-.9 1.3-3.3 1.8-5.2 3.2-1.8 1.3-3.1 3.5-4.6 4-1.4.5-3.7-.5-6-.5s-4.6.9-6 .5c-1.5-.5-2.8-2.6-4.6-4-1.8-1.3-4.3-1.9-5.2-3.2-.9-1.2-.7-3.7-1.4-5.9s-2.3-4-2.3-5.6 1.6-3.5 2.3-5.6c.7-2.2.5-4.7 1.4-5.9.9-1.3 3.3-1.8 5.2-3.2 1.8-1.3 3.1-3.5 4.6-4 1.4-.5 3.7.5 6 .5 2.4 0 4.6-.9 6-.5 1.5.5 2.8 2.6 4.6 4 1.8 1.3 4.3 1.9 5.2 3.2.9 1.2.7 3.7 1.4 5.9s2.3 4 2.3 5.6c0 1.6-1.6 3.5-2.3 5.6z"></path>
    <path d="M31.6 16.7c.7.7.7 1.9 0 2.6l-9.1 9.1c-.7.7-1.9.7-2.6 0l-5.1-5.1c-.7-.7-.7-1.9 0-2.6s1.9-.7 2.6 0l3.8 3.8 7.8-7.8c.7-.7 1.9-.7 2.6 0z"></path>
  </symbol>
  <symbol xmlns="http://www.w3.org/2000/svg" viewBox="0 0 52.6 54.8" id="sale">
    <path d="M50 28.1c-.2-.5-.2-1 0-1.4l2-4.2c1.1-2.3.2-5.1-2.1-6.3l-4-2.2c-.4-.2-.7-.7-.8-1.1l-.8-4.6c-.4-2.6-2.8-4.3-5.4-3.9l-4.6.6c-.5.1-1-.1-1.3-.4l-3.3-3.2c-1.9-1.8-4.8-1.8-6.6 0l-3.3 3.2c-.4.3-.9.5-1.3.4l-4.6-.7c-2.8-.3-5.2 1.4-5.6 4l-.8 4.6c-.1.5-.4.9-.8 1.1l-4.1 2.2c-2.3 1.2-3.2 4-2.1 6.3l2 4.2c.2.5.2 1 0 1.4l-2 4.2c-1.1 2.3-.2 5.1 2.1 6.3l4.1 2.2c.4.2.7.7.8 1.1l.8 4.6c.4 2.3 2.4 4 4.7 4h.7l4.6-.7c.5-.1 1 .1 1.3.4l3.3 3.2c.9.9 2.1 1.4 3.3 1.4 1.2 0 2.4-.5 3.3-1.4l3.3-3.2c.4-.3.9-.5 1.3-.4l4.6.7c2.6.4 4.9-1.4 5.4-3.9l.8-4.6c.1-.5.4-.9.8-1.1l4.1-2.2c2.3-1.2 3.2-4 2.1-6.3L50 28.1zm-1.5 7.7L44.4 38c-1.3.7-2.2 1.9-2.5 3.4l-.7 4.6c-.2.9-.9 1.4-1.8 1.3l-4.6-.7c-1.5-.2-2.9.3-4 1.3l-3.3 3.2c-.6.6-1.6.6-2.2 0L22 47.9c-.9-.9-2.1-1.3-3.3-1.3H18l-4.6.7c-.9.1-1.7-.5-1.8-1.3l-.8-4.6c-.3-1.5-1.2-2.7-2.5-3.4L4 35.8c-.8-.4-1.1-1.3-.7-2.1l2-4.2c.7-1.3.7-2.9 0-4.2l-2-4.2c-.4-.8 0-1.7.7-2.1l4.1-2.2c1.3-.7 2.2-1.9 2.5-3.4l.8-4.6c.2-.9.9-1.4 1.8-1.3l4.6.7c1.5.2 2.9-.3 4-1.3l3.3-3.2c.6-.6 1.6-.6 2.2 0l3.3 3.2c1.1 1 2.5 1.5 4 1.3l4.6-.7c1-.1 1.8.5 2 1.3l.8 4.6c.3 1.5 1.2 2.7 2.5 3.4l4.1 2.2c.8.4 1.1 1.3.7 2.1l-2 4.2c-.7 1.3-.7 2.9 0 4.2l2 4.2c.3.8 0 1.7-.8 2.1z"></path>
    <path d="M37.8 15.8c-.6-.6-1.6-.6-2.2 0L14.7 36.7c-.6.6-.6 1.6 0 2.2.3.3.7.5 1.1.5s.8-.2 1.1-.5L37.8 18c.6-.5.6-1.5 0-2.2zM20 13.2c-3.2 0-5.8 2.6-5.8 5.8s2.6 5.8 5.8 5.8 5.8-2.6 5.8-5.8-2.6-5.8-5.8-5.8zm0 8.4c-1.5 0-2.6-1.2-2.6-2.6 0-1.5 1.2-2.6 2.6-2.6 1.5 0 2.6 1.2 2.6 2.6 0 1.4-1.2 2.6-2.6 2.6zM32.6 30c-3.2 0-5.8 2.6-5.8 5.8 0 3.2 2.6 5.8 5.8 5.8 3.2 0 5.8-2.6 5.8-5.8 0-3.2-2.6-5.8-5.8-5.8zm0 8.5c-1.5 0-2.6-1.2-2.6-2.6 0-1.5 1.2-2.6 2.6-2.6 1.5 0 2.6 1.2 2.6 2.6 0 1.4-1.1 2.6-2.6 2.6z"></path>
  </symbol>
  <symbol xmlns="http://www.w3.org/2000/svg" viewBox="0 0 40934 51739" id="scale-ruler">
    <path d="M17784 2H1616C723 2-1 726-1 1619v48502c0 893 723 1617 1617 1617h16168c893 0 1617-724 1617-1617V1619c0-893-724-1617-1617-1617zm20425 41978l-4258 4245V5516l4241 4241c593 594 1562 594 2155 0l125-125c594-593 594-1562 0-2155L33466 471c-631-627-1649-627-2280 0l-7006 7006c-594 593-594 1562 0 2155l126 126c593 593 1560 594 2153 2l4258-4245v40709l-4241-4241c-593-594-1562-594-2155 0l-125 125c-594 593-594 1562 0 2155l7006 7006c631 627 1649 627 2280 0l7006-7006c594-593 594-1562 0-2155l-126-126c-593-593-1560-594-2153-2zm-22042 6524H3233v-4850h6560c839 0 1524-684 1524-1524v-186c0-839-684-1524-1524-1524H3233v-4850h3327c839 0 1524-684 1524-1524v-186c0-839-684-1524-1524-1524H3233v-4850h6560c839 0 1524-684 1524-1524v-186c0-839-684-1524-1524-1524H3233v-4850h3327c839 0 1524-684 1524-1524v-186c0-839-684-1524-1524-1524H3233v-4850h6560c839 0 1524-684 1524-1524v-186c0-839-684-1524-1524-1524H3233V3234h12934v45269z"></path>
  </symbol>
  <symbol xmlns="http://www.w3.org/2000/svg" viewBox="0 0 11249 30451" id="scale">
    <path d="M9467 24068l-2785 2776V3606l2774 2774c388 388 1021 388 1409 0l82-82c388-388 388-1021 0-1409L6365 307c-413-410-1078-410-1491 0L292 4889c-388 388-388 1021 0 1409l83 83c388 388 1020 388 1408 1l2785-2776v23238l-2774-2774c-388-388-1021-388-1409 0l-82 82c-388 388-388 1021 0 1409l4582 4582c413 410 1078 410 1491 0l4582-4582c388-388 388-1021 0-1409l-83-83c-388-388-1020-388-1408-1z"></path>
  </symbol>
  <symbol xmlns="http://www.w3.org/2000/svg" viewBox="0 0 464 464" id="arrow-up-curved">
    <path d="M100.2 10.3c4.3-6 11.3-10 18.7-10.3 8.1-.4 16.1 3.6 20.7 10.2C171.3 52.5 203 94.8 234.7 137c4.8 6.1 6.4 14.4 4.1 21.8-2.2 7.6-8.5 13.9-16.1 16.1-7.1 2.2-15.2.8-21.1-3.7-3.7-2.7-6.2-6.6-8.9-10.2-24.2-32.3-48.4-64.7-72.7-97-25.6 34.1-51.2 68.2-76.7 102.3-4.4 6-11.8 9.8-19.2 9.7-8.5.1-16.7-4.7-20.9-12.1-4.7-8-4.1-18.8 1.5-26.2 31.8-42.5 63.7-84.9 95.5-127.4z"></path>
    <path d="M97.5 120.5c7.5-9.9 14.9-19.9 22.4-29.8 8 10.8 16.3 21.3 24 32.3.5 33.7 6.4 67.3 18.1 99 21.7 59.4 63.1 111.4 116.1 145.9 47.4 31.2 104 48.1 160.8 48.1 7.1-.2 14.3 2.7 19 8.1 5.7 6.2 7.6 15.6 4.9 23.6-2.4 7.3-8.5 13.2-15.8 15.4-4.2 1.3-8.6 1-12.9 1-42.8-.6-85.6-9.4-125.2-25.7-35.6-14.6-68.6-35.3-97.3-60.9-49-43.4-85.2-101-102.8-164.1-8.2-29-12.4-59.2-12.7-89.3-.3-1.6.7-2.6 1.4-3.6z"></path>
  </symbol>
  <symbol viewBox="0 0 512 512" xmlns="http://www.w3.org/2000/svg" id="blinds">
    <path d="M48.73 0H463c4.19.57 8.03 3.74 8.74 8 .52 3.98.18 8 .26 12 7 .11 14.32-.7 20.96 2.09 10.57 4.02 18.08 14.42 19.04 25.64v4.28c-.82 10.82-7.73 20.94-17.69 25.32-6.95 3.38-14.83 2.61-22.31 2.67-.01 23.02.01 46.05 0 69.07.17 3.64-1.46 7.39-4.63 9.33-2.44 1.69-5.52 1.61-8.35 1.63-7.67-.05-15.35-.03-23.02-.03-.01 37.7.01 75.4 0 113.1.42 5.29-3.73 10.47-9.09 10.83-5.6.67-11.01-4.21-10.87-9.85-.1-38.02-.01-76.05-.04-114.08H96v242h320c.05-12.71-.08-25.41.05-38.11-.17-5.96 5.89-10.96 11.71-9.71 4.57.74 8.24 5.03 8.19 9.68.12 15.75.02 31.51.04 47.27.16 3.58-1.45 7.28-4.55 9.22-3.06 2.09-6.95 1.59-10.45 1.67-51.66-.05-103.32-.01-154.99-.02 0 7.14-.02 14.27.02 21.41 10.17 3.16 18.83 10.97 22.61 20.98 4.94 12.35 1.9 27.34-7.42 36.81-5.9 6.33-14.27 10-22.83 10.8h-3.7c-17.44-.41-32.96-15.46-33.6-32.93-1.28-15.83 9.78-31.21 24.9-35.66.04-7.14.01-14.27.02-21.41-53.37-.04-106.74.07-160.1-.05-5.7.12-10.37-5.27-9.9-10.86-.01-83.69.01-167.39 0-251.09-8.7-.06-17.39.09-26.08-.05-5.3.11-10.01-4.62-9.88-9.92-.1-23.34 0-46.69-.04-70.03-6.98-.11-14.27.7-20.89-2.07C8.54 73.91.97 63.56 0 52.33v-4.4c.82-11.3 8.4-21.76 19-25.83 6.65-2.8 13.98-1.99 21-2.1.08-4.01-.27-8.05.26-12.04.71-4.18 4.42-7.23 8.47-7.96M60 20v60h392V20H60M23.47 42.47c-4.54 3.68-4.55 11.33-.04 15.03C28.02 61.48 34.5 59.55 40 60V40c-5.48.45-11.96-1.48-16.53 2.47M472 40v20c5.31-.43 11.39 1.34 16.02-2.06 4.76-3.38 5.29-11.03 1.01-15.01-4.5-4.52-11.37-2.48-17.03-2.93M60 100v40h392v-40H60m193.23 362.27c-8.17 1.37-14.04 10.32-11.76 18.35 1.83 8 10.98 13.37 18.82 10.71 7.69-2.12 12.6-11.06 10.03-18.66-2.01-7.11-9.83-11.93-17.09-10.4z"></path>
    <path d="M248.96 198.94c3.69-3.88 10.42-3.84 14.12.02 11.55 11.44 23.02 22.98 34.52 34.49 3.58 3.19 4.5 8.93 1.78 12.95-3.16 5.26-11.26 6.14-15.45 1.63-9.36-9.25-18.6-18.61-27.93-27.88-8.78 8.83-17.63 17.59-26.4 26.43-1.74 1.76-3.68 3.53-6.17 4.09-4.3 1.17-9.16-1.01-11.21-4.94-2.11-3.76-1.36-8.79 1.73-11.78 11.64-11.7 23.3-23.37 35.01-35.01zm-31.59 72.76c1.78-.72 3.73-.68 5.62-.72 22.7.07 45.4-.04 68.09.06 5.3-.12 10.03 4.66 9.89 9.96.14 5.29-4.59 10.06-9.89 9.96-23.38.07-46.78.07-70.17 0-4.96.07-9.5-4.08-9.84-9.03-.49-4.33 2.25-8.7 6.3-10.23zm205.08 37.97c6.85-2.98 15.04 3.82 13.36 11.1-.98 7.39-11.01 10.9-16.38 5.73-5.66-4.52-3.84-14.56 3.02-16.83zm-208.49 4.27c3.68-3.89 10.43-3.84 14.11.02 9.35 9.26 18.63 18.58 27.93 27.89 9.35-9.29 18.61-18.67 27.99-27.93 3.67-3.84 10.41-3.84 14.06.04 3.89 3.66 3.84 10.42-.01 14.1-11.62 11.73-23.3 23.41-35.03 35.03-3.69 3.8-10.35 3.82-14.02-.01a8284.991 8284.991 0 0 1-35.08-35.07c-3.83-3.69-3.83-10.42.05-14.07z"></path>
  </symbol>
  <symbol xmlns="http://www.w3.org/2000/svg" viewBox="0 0 396.5 512" id="calculator">
    <path d="M39.7 0h317.1c15.4.5 29.9 10.3 36.1 24.5 2.7 5.8 3.8 12.2 3.7 18.5v427c.2 12.8-5.8 25.5-16 33.3-6.7 5.4-15.2 8.3-23.7 8.7H39.8c-16.2-.6-31.4-11.4-37-26.6C-.7 477 .1 467.8 0 459V42c-.1-10.6 4-21.3 11.3-29C18.6 5.2 29.1.5 39.7 0m-5.1 17.5C23.9 20.3 16.1 31 16.6 42v429c-.2 13.1 11.7 24.7 24.8 24.4h313.9c13.1.3 24.9-11.3 24.7-24.4V40.9c.2-13.1-11.6-24.8-24.8-24.5H46.3c-3.9.1-7.9 0-11.7 1.1z"></path>
    <path d="M49.6 181.7V49.6h297.3c.1 44 0 88.1 0 132.1H49.6M66.2 66v99.1h264.2V66H66.2zM49.6 198.3h66c.1 22 0 44 0 66H49.7c-.2-22 0-44-.1-66m16.6 16.4v33h33v-33.1c-11 .1-22 .1-33 .1zm99.1-16.6h66v66h-66v-66m16.5 49.6h33.1v-33h-33c-.2 11-.1 22-.1 33zm99-49.4c22-.1 44 0 66 0v66h-66c0-22 .1-44 0-66m16.6 16.4v33.1h33v-33c-11-.1-22-.1-33-.1zM49.6 297.3h66v66h-66v-66m16.6 16.6v33h33v-33.1c-11 .1-22 .1-33 .1zm99-16.6h66v66h-66v-66m16.5 16.7c.1 11 0 21.9.1 32.9h33.1c0-11-.1-21.9.1-32.9-11.2-.3-22.2-.2-33.3 0zm99.1-16.6c22-.1 44 0 66 0v66h-66c0-22 .1-44 0-66m16.6 16.5V347h33v-33c-11-.1-22-.1-33-.1zM49.6 396.4h66v66h-66v-66m16.6 16.5v33h33.1v-33H66.2zm99-16.5h181.7v66H165.2v-66m16.6 16.5v33h148.7v-33H181.8z"></path>
  </symbol>
</svg>